<?xml version="1.0" encoding="iso-8859-1"?>
<svg width="54" height="54" viewBox="0 0 54 54" fill="none" xmlns="http://www.w3.org/2000/svg">
<g filter="url(#filter0_d)">
<circle cx="27" cy="27" r="20" fill="#CC0A31"/>
</g>
<path d="M32.9586 16C30.1792 16 27.9169 18.2605 27.9169 21.0417C27.9169 21.6577 27.6346 22.2535 27.0791 22.8117C26.9012 22.9914 26.9012 23.2811 27.08 23.4598L30.5404 26.9202C30.6302 27.0101 30.7475 27.0541 30.8649 27.0541C30.9813 27.0541 31.0986 27.0101 31.1885 26.9202C31.7467 26.3647 32.3426 26.0824 32.9586 26.0824C35.7388 26.0824 38.0002 23.821 38.0002 21.0408C38.0002 18.2605 35.7397 16 32.9586 16ZM32.9586 18.75C31.6954 18.75 30.6669 19.7785 30.6669 21.0417C30.6669 21.2947 30.4616 21.5 30.2086 21.5C29.9556 21.5 29.7502 21.2947 29.7502 21.0417C29.7502 19.2725 31.1894 17.8333 32.9586 17.8333C33.2116 17.8333 33.4169 18.0387 33.4169 18.2917C33.4169 18.5447 33.2116 18.75 32.9586 18.75Z" fill="white"/>
<path d="M22.6623 20.3375C22.2306 19.9049 21.6549 19.6665 21.0417 19.6665C19.7785 19.6665 18.75 20.695 18.75 21.9582C18.75 22.5705 18.9883 23.1462 19.421 23.5789L23.2215 27.3803L22.4552 28.1457C19.0791 27.13 16 29.7113 16 32.9582C16 35.7393 18.2605 37.9998 21.0417 37.9998C23.8219 37.9998 26.0833 35.7384 26.0833 32.9582C26.0833 32.4925 25.9944 32.0268 25.8496 31.5483L26.6205 30.7774L30.421 34.5779C30.8527 35.0115 31.4284 35.2499 32.0417 35.2499C33.3048 35.2499 34.3333 34.2213 34.3333 32.9582C34.3333 32.3458 34.095 31.7702 33.6623 31.3375L22.6623 20.3375ZM21.0417 35.2499C19.7785 35.2499 18.75 34.2213 18.75 32.9582C18.75 31.8774 19.5026 30.969 20.5109 30.7289C20.3881 31.4686 20.6062 32.2542 21.1755 32.8234C21.6439 33.2919 22.259 33.5265 22.875 33.5265C23.0079 33.5265 23.1399 33.51 23.271 33.4889C23.0308 34.4973 22.1233 35.2499 21.0417 35.2499Z" fill="white"/>
<defs>
<filter id="filter0_d" x="0" y="0" width="54" height="54" filterUnits="userSpaceOnUse" color-interpolation-filters="sRGB">
<feFlood flood-opacity="0" result="BackgroundImageFix"/>
<feColorMatrix in="SourceAlpha" type="matrix" values="0 0 0 0 0 0 0 0 0 0 0 0 0 0 0 0 0 0 127 0"/>
<feOffset/>
<feGaussianBlur stdDeviation="3.5"/>
<feColorMatrix type="matrix" values="0 0 0 0 0 0 0 0 0 0 0 0 0 0 0 0 0 0 0.14 0"/>
<feBlend mode="normal" in2="BackgroundImageFix" result="effect1_dropShadow"/>
<feBlend mode="normal" in="SourceGraphic" in2="effect1_dropShadow" result="shape"/>
</filter>
</defs>
</svg>