<?xml version="1.0" encoding="iso-8859-1"?>
<svg width="54" height="54" viewBox="0 0 54 54" fill="none" xmlns="http://www.w3.org/2000/svg">
<g filter="url(#filter0_d)">
<circle cx="27" cy="27" r="20" fill="#CC0A31"/>
</g>
<g clip-path="url(#clip0)">
<path d="M37.8216 29.1617C39.3566 27.6262 39.3566 25.1355 37.8211 23.5996C37.5339 23.3124 37.2063 23.0968 36.8649 22.9169C36.8757 21.8958 36.4958 20.8719 35.7171 20.0927C35.3938 19.7689 35.0222 19.53 34.6317 19.3417C34.4435 18.9512 34.2045 18.5801 33.8812 18.2568C33.1015 17.4766 32.0776 17.0968 31.0565 17.1085C30.8766 16.7667 30.6606 16.4385 30.3743 16.1518C28.8389 14.6163 26.3472 14.6158 24.8117 16.1518C24.7722 16.1913 24.7459 16.2366 24.7098 16.2771C23.1962 15.3628 21.2063 15.5476 19.9015 16.8535C18.3655 18.389 18.3655 20.8802 19.9015 22.4161C20.4705 22.9847 21.1805 23.3484 21.9133 23.4923C21.81 24.368 20.9601 30.6943 17.2737 35.2154C16.908 35.6635 16.9543 36.3198 17.38 36.7109C17.7803 37.0795 18.3884 37.0971 18.8107 36.7538C23.3957 33.0255 29.6537 32.182 30.506 32.081C30.6489 32.8144 30.9936 33.5078 31.5631 34.0773C33.0981 35.6133 35.5869 35.6113 37.1224 34.0749C38.4282 32.7691 38.6106 30.7767 37.6963 29.2636C37.7368 29.228 37.7821 29.2012 37.8216 29.1617ZM23.1494 27.3849C23.3386 27.8437 23.5766 28.2772 23.8877 28.6975L22.1645 30.4207C22.5667 29.3329 22.9003 28.3079 23.1494 27.3849ZM23.6053 31.8621L25.3432 30.1243C25.7742 30.4261 26.2404 30.6728 26.7217 30.8542C25.7791 31.1063 24.6932 31.4145 23.6053 31.8621Z" fill="white"/>
</g>
<defs>
<filter id="filter0_d" x="0" y="0" width="54" height="54" filterUnits="userSpaceOnUse" color-interpolation-filters="sRGB">
<feFlood flood-opacity="0" result="BackgroundImageFix"/>
<feColorMatrix in="SourceAlpha" type="matrix" values="0 0 0 0 0 0 0 0 0 0 0 0 0 0 0 0 0 0 127 0"/>
<feOffset/>
<feGaussianBlur stdDeviation="3.5"/>
<feColorMatrix type="matrix" values="0 0 0 0 0 0 0 0 0 0 0 0 0 0 0 0 0 0 0.14 0"/>
<feBlend mode="normal" in2="BackgroundImageFix" result="effect1_dropShadow"/>
<feBlend mode="normal" in="SourceGraphic" in2="effect1_dropShadow" result="shape"/>
</filter>
<clipPath id="clip0">
<rect width="22" height="22" fill="white" transform="translate(17 15)"/>
</clipPath>
</defs>
</svg>