<?xml version="1.0" encoding="UTF-8"?>
<svg width="55" height="18" viewBox="0 0 55 18" fill="none" xmlns="http://www.w3.org/2000/svg">
<path fill-rule="evenodd" clip-rule="evenodd" d="M43.8528 0C41.833 0 40.5524 0.194145 39.4107 2.79027L34.8163 12.4878C34.457 13.2451 34.1947 14.0429 34.0629 14.7931C32.4095 12.1621 30.4039 8.95453 30.4103 8.95453C31.8843 8.62816 32.8036 7.70581 33.9099 6.49708L39.6467 0.00644999H33.1989C33.1989 0.00644999 31.3784 2.06142 28.5486 5.26191C27.5516 6.39388 26.5687 6.83764 24.9494 6.83764H23.2342L26.4652 0.00644999H4.21255C2.02688 0.00644999 0.996405 1.22098 0.566987 2.13108L0.06107 3.19339H7.00762L0 18H1.95103C5.42302 18 7.06227 16.0566 7.74818 14.6196L12.2191 5.16451C12.4744 4.68528 12.9591 3.22177 14.5044 3.19339H18.8134L11.8039 18H13.7555C17.2217 18 18.8745 16.0566 19.554 14.6196L22.1613 9.09385C23.5518 9.16286 24.3207 9.635 24.9841 10.6618C27.0939 13.7791 26.8252 13.7243 28.0845 15.6677C29.4409 17.7497 30.3891 18 32.189 18H45.9144C48.093 18 49.1318 16.7784 49.5612 15.876L50.0588 14.8131H41.7288C40.7877 14.8131 40.159 14.2932 40.7459 12.9458L44.4281 5.17225C44.6833 4.67818 45.1745 3.19339 46.752 3.19339H50.5229C52.7021 3.19339 53.7384 1.97112 54.162 1.06812L54.6667 0.00644999C54.6602 0.00644999 44.0398 0 43.8528 0Z" fill="#CD0A31"/>
</svg>
