<?xml version="1.0" encoding="UTF-8"?>
<svg width="133px" height="57px" viewBox="0 0 133 57" version="1.1" xmlns="http://www.w3.org/2000/svg" xmlns:xlink="http://www.w3.org/1999/xlink">
    <!-- Generator: Sketch 47.1 (45422) - http://www.bohemiancoding.com/sketch -->
    <title>Group 31</title>
    <desc>Created with Sketch.</desc>
    <defs></defs>
    <g id="General" stroke="none" stroke-width="1" fill="none" fill-rule="evenodd">
        <g transform="translate(-165.000000, -16.000000)" id="Group-31" fill="#CF002C">
            <g transform="translate(165.000000, 16.000000)">
                <g id="Group-39" transform="translate(1.000000, 0.000000)">
                    <path d="M65.7791602,0 C62.7494444,0 60.8286316,0.291217257 59.1160997,4.18540151 L52.2245088,18.7317519 C51.6854855,19.8675959 51.292066,21.0643924 51.094392,22.189594 C48.6143064,18.2431648 45.6058044,13.4317913 45.615447,13.4317913 C47.8265031,12.9422367 49.2053999,11.5587129 50.8648973,9.74561938 L59.4699844,0.00967499194 L49.7984219,0.00967499194 C49.7984219,0.00967499194 47.0676278,3.09212742 42.8229401,7.89285842 C41.3273674,9.59081951 39.8530086,10.256459 37.424029,10.256459 L34.8513741,10.256459 L39.6977622,0.00967499194 L6.31881842,0.00967499194 C3.04032268,0.00967499194 1.49460836,1.83147597 0.850480368,3.19661734 L0.0916050283,4.79008851 L10.5114359,4.79008851 L0,27 L2.92653959,27 C8.13452651,27 10.5933983,24.0849249 11.6222674,21.9293367 L18.3287198,7.74676604 C18.7115324,7.02791414 19.438587,4.83265847 21.7566763,4.79008851 L28.2201343,4.79008851 L17.7058056,27 L20.6333094,27 C25.832618,27 28.3117393,24.0849249 29.3309658,21.9293367 L33.2420184,13.6407711 C35.3277202,13.7442935 36.4809793,14.452503 37.4760992,15.9927617 C40.6408119,20.6686853 40.2377497,20.5864478 42.1267418,23.5015229 C44.1613377,26.6246103 45.5836263,27 48.283564,27 L68.8715531,27 C72.1394419,27 73.6976916,25.1675565 74.3418196,23.8140252 L75.0881596,22.2195865 L62.5932337,22.2195865 C61.181552,22.2195865 60.2385023,21.4397821 61.1188749,19.4186763 L66.6421759,7.75837603 C67.0249885,7.01727165 67.7616858,4.79008851 70.1279883,4.79008851 L75.7843578,4.79008851 C79.0532109,4.79008851 80.6076036,2.95667754 81.2430532,1.60217866 L82,0.00967499194 C81.9903574,0.00967499194 66.0597608,0 65.7791602,0" id="Fill-4"></path>
                </g>
                <path d="M3.696,42 L3.696,39.48 L3,39.48 C2.86399932,39.48 2.73800058,39.4899999 2.622,39.51 C2.50599942,39.5300001 2.40000048,39.5699997 2.304,39.63 C2.20799952,39.6900003 2.12200038,39.7779994 2.046,39.894 C1.96999962,40.0100006 1.90400028,40.163999 1.848,40.356 L1.38,42 L0.3,42 L0.888,40.068 C0.93600024,39.9239993 0.98399976,39.7880006 1.032,39.66 C1.08000024,39.5319994 1.13999964,39.4160005 1.212,39.312 C1.28400036,39.2079995 1.3699995,39.1200004 1.47,39.048 C1.5700005,38.9759996 1.68799932,38.9240002 1.824,38.892 C1.59999888,38.8279997 1.42000068,38.698001 1.284,38.502 C1.14799932,38.305999 1.03600044,38.0640014 0.948,37.776 L0.408,36.048 L1.464,36.048 L1.992,37.764 C2.04800028,37.956001 2.11799958,38.1059995 2.202,38.214 C2.28600042,38.3220005 2.3779995,38.4039997 2.478,38.46 C2.5780005,38.5160003 2.68399944,38.5499999 2.796,38.562 C2.90800056,38.5740001 3.01999944,38.58 3.132,38.58 L3.696,38.58 L3.696,36.048 L4.716,36.048 L4.716,38.58 L5.28,38.58 C5.39200056,38.58 5.50399944,38.5740001 5.616,38.562 C5.72800056,38.5499999 5.8339995,38.5160003 5.934,38.46 C6.0340005,38.4039997 6.1239996,38.3220005 6.204,38.214 C6.2840004,38.1059995 6.35599968,37.956001 6.42,37.764 L6.948,36.048 L8.004,36.048 L7.464,37.776 C7.37599956,38.0640014 7.26400068,38.305999 7.128,38.502 C6.99199932,38.698001 6.81200112,38.8279997 6.588,38.892 C6.86000136,38.9560003 7.06199934,39.0939989 7.194,39.306 C7.32600066,39.5180011 7.43599956,39.7719985 7.524,40.068 L8.112,42 L7.032,42 L6.564,40.356 C6.50799972,40.163999 6.44200038,40.0100006 6.366,39.894 C6.28999962,39.7779994 6.20400048,39.6900003 6.108,39.63 C6.01199952,39.5699997 5.90600058,39.5300001 5.79,39.51 C5.67399942,39.4899999 5.54800068,39.48 5.412,39.48 L4.716,39.48 L4.716,42 L3.696,42 Z M10.008,39.408 L10.008,39.804 C10.008,40.0440012 10.0479996,40.2459992 10.128,40.41 C10.2080004,40.5740008 10.3179993,40.7099995 10.458,40.818 C10.5980007,40.9260005 10.7579991,41.0039998 10.938,41.052 C11.1180009,41.1000002 11.303999,41.124 11.496,41.124 C11.696001,41.124 11.9279987,41.0840004 12.192,41.004 C12.4560013,40.9239996 12.7119988,40.7680012 12.96,40.536 L13.608,41.244 C13.3039985,41.5560016 12.9660019,41.7699994 12.594,41.886 C12.2219981,42.0020006 11.8480019,42.06 11.472,42.06 C11.1359983,42.06 10.8160015,42.0140005 10.512,41.922 C10.2079985,41.8299995 9.94200114,41.6940009 9.714,41.514 C9.48599886,41.3339991 9.30600066,41.1080014 9.174,40.836 C9.04199934,40.5639986 8.976,40.2480018 8.976,39.888 L8.976,38.316 C8.976,37.9639982 9.0359994,37.6440014 9.156,37.356 C9.2760006,37.0679986 9.44199894,36.824001 9.654,36.624 C9.86600106,36.423999 10.1179985,36.2700005 10.41,36.162 C10.7020015,36.0539995 11.0239982,36 11.376,36 C11.7280018,36 12.0519985,36.0519995 12.348,36.156 C12.6440015,36.2600005 12.8979989,36.407999 13.11,36.6 C13.3220011,36.792001 13.4859994,37.0259986 13.602,37.302 C13.7180006,37.5780014 13.776,37.8879983 13.776,38.232 L13.776,39.408 L10.008,39.408 Z M12.732,38.34 C12.732,38.0919988 12.6960004,37.8800009 12.624,37.704 C12.5519996,37.5279991 12.4540006,37.3820006 12.33,37.266 C12.2059994,37.1499994 12.0620008,37.0660003 11.898,37.014 C11.7339992,36.9619997 11.5600009,36.936 11.376,36.936 C11.1919991,36.936 11.0200008,36.9639997 10.86,37.02 C10.6999992,37.0760003 10.5560006,37.1599994 10.428,37.272 C10.2999994,37.3840006 10.2000004,37.5259991 10.128,37.698 C10.0559996,37.8700009 10.02,38.0719988 10.02,38.304 L10.02,38.568 L12.732,38.568 L12.732,38.34 Z M16.584,36.972 L16.584,38.58 C16.584,39.1960031 16.5360005,39.707998 16.44,40.116 C16.3439995,40.524002 16.2120008,40.8599987 16.044,41.124 C15.8759992,41.3880013 15.6740012,41.5999992 15.438,41.76 C15.2019988,41.9200008 14.9440014,42.0559994 14.664,42.168 L14.244,41.34 C14.4680011,41.2359995 14.6639992,41.1280006 14.832,41.016 C15.0000008,40.9039994 15.1379995,40.750001 15.246,40.554 C15.3540005,40.357999 15.4339997,40.1000016 15.486,39.78 C15.5380003,39.4599984 15.564,39.0400026 15.564,38.52 L15.564,36.06 L19.692,36.06 L19.692,42 L18.66,42 L18.66,36.972 L16.584,36.972 Z M22.008,39.408 L22.008,39.804 C22.008,40.0440012 22.0479996,40.2459992 22.128,40.41 C22.2080004,40.5740008 22.3179993,40.7099995 22.458,40.818 C22.5980007,40.9260005 22.7579991,41.0039998 22.938,41.052 C23.1180009,41.1000002 23.303999,41.124 23.496,41.124 C23.696001,41.124 23.9279987,41.0840004 24.192,41.004 C24.4560013,40.9239996 24.7119988,40.7680012 24.96,40.536 L25.608,41.244 C25.3039985,41.5560016 24.9660019,41.7699994 24.594,41.886 C24.2219981,42.0020006 23.8480019,42.06 23.472,42.06 C23.1359983,42.06 22.8160015,42.0140005 22.512,41.922 C22.2079985,41.8299995 21.9420011,41.6940009 21.714,41.514 C21.4859989,41.3339991 21.3060007,41.1080014 21.174,40.836 C21.0419993,40.5639986 20.976,40.2480018 20.976,39.888 L20.976,38.316 C20.976,37.9639982 21.0359994,37.6440014 21.156,37.356 C21.2760006,37.0679986 21.4419989,36.824001 21.654,36.624 C21.8660011,36.423999 22.1179985,36.2700005 22.41,36.162 C22.7020015,36.0539995 23.0239982,36 23.376,36 C23.7280018,36 24.0519985,36.0519995 24.348,36.156 C24.6440015,36.2600005 24.8979989,36.407999 25.11,36.6 C25.3220011,36.792001 25.4859994,37.0259986 25.602,37.302 C25.7180006,37.5780014 25.776,37.8879983 25.776,38.232 L25.776,39.408 L22.008,39.408 Z M24.732,38.34 C24.732,38.0919988 24.6960004,37.8800009 24.624,37.704 C24.5519996,37.5279991 24.4540006,37.3820006 24.33,37.266 C24.2059994,37.1499994 24.0620008,37.0660003 23.898,37.014 C23.7339992,36.9619997 23.5600009,36.936 23.376,36.936 C23.1919991,36.936 23.0200008,36.9639997 22.86,37.02 C22.6999992,37.0760003 22.5560006,37.1599994 22.428,37.272 C22.2999994,37.3840006 22.2000004,37.5259991 22.128,37.698 C22.0559996,37.8700009 22.02,38.0719988 22.02,38.304 L22.02,38.568 L24.732,38.568 L24.732,38.34 Z M26.988,40.596 C27.196001,40.7800009 27.4419986,40.9159996 27.726,41.004 C28.0100014,41.0920004 28.2679988,41.136 28.5,41.136 C28.7560013,41.136 28.9699991,41.1100003 29.142,41.058 C29.3140009,41.0059997 29.4539995,40.9380004 29.562,40.854 C29.6700005,40.7699996 29.7479998,40.6740005 29.796,40.566 C29.8440002,40.4579995 29.868,40.3480006 29.868,40.236 C29.868,39.9559986 29.7620011,39.7440007 29.55,39.6 C29.3379989,39.4559993 29.0720016,39.384 28.752,39.384 L27.936,39.384 L27.936,38.532 L28.776,38.532 C29.0960016,38.532 29.3439991,38.4540008 29.52,38.298 C29.6960009,38.1419992 29.784,37.9480012 29.784,37.716 C29.784,37.4519987 29.6680012,37.2580006 29.436,37.134 C29.2039988,37.0099994 28.9400015,36.948 28.644,36.948 C28.4119988,36.948 28.1700013,36.9819997 27.918,37.05 C27.6659987,37.1180003 27.436001,37.2439991 27.228,37.428 L26.592,36.72 C26.8720014,36.4559987 27.1999981,36.2680006 27.576,36.156 C27.9520019,36.0439994 28.3279981,35.988 28.704,35.988 C29.0480017,35.988 29.3499987,36.0319996 29.61,36.12 C29.8700013,36.2080004 30.0859991,36.3279992 30.258,36.48 C30.4300009,36.6320008 30.5599996,36.805999 30.648,37.002 C30.7360004,37.198001 30.78,37.4079989 30.78,37.632 C30.78,37.7200004 30.7720001,37.8219994 30.756,37.938 C30.7399999,38.0540006 30.7020003,38.1719994 30.642,38.292 C30.5819997,38.4120006 30.4980005,38.5259995 30.39,38.634 C30.2819995,38.7420005 30.1360009,38.8319996 29.952,38.904 C30.1360009,38.9760004 30.2879994,39.0679994 30.408,39.18 C30.5280006,39.2920006 30.6219997,39.4119994 30.69,39.54 C30.7580003,39.6680006 30.8039999,39.7919994 30.828,39.912 C30.8520001,40.0320006 30.864,40.1359996 30.864,40.224 C30.864,40.4880013 30.8160005,40.7299989 30.72,40.95 C30.6239995,41.1700011 30.480001,41.3619992 30.288,41.526 C30.095999,41.6900008 29.8560014,41.8179995 29.568,41.91 C29.2799986,42.0020005 28.9440019,42.048 28.56,42.048 C28.1759981,42.048 27.7940019,41.9940005 27.414,41.886 C27.0339981,41.7779995 26.6840016,41.5840014 26.364,41.304 L26.988,40.596 Z M35.772,42 L35.772,39.468 L32.94,39.468 L32.94,42 L31.908,42 L31.908,36.06 L32.94,36.06 L32.94,38.532 L35.772,38.532 L35.772,36.06 L36.816,36.06 L36.816,42 L35.772,42 Z M42.912,39.9 C42.912,40.2440017 42.8460007,40.5499987 42.714,40.818 C42.5819993,41.0860013 42.4020011,41.3119991 42.174,41.496 C41.9459989,41.6800009 41.6840015,41.8199995 41.388,41.916 C41.0919985,42.0120005 40.7760017,42.06 40.44,42.06 C40.0959983,42.06 39.7760015,42.0120005 39.48,41.916 C39.1839985,41.8199995 38.9260011,41.6800009 38.706,41.496 C38.4859989,41.3119991 38.3120006,41.0860013 38.184,40.818 C38.0559994,40.5499987 37.992,40.2440017 37.992,39.9 L37.992,38.172 C37.992,37.8279983 38.0579993,37.5220013 38.19,37.254 C38.3220007,36.9859987 38.4979989,36.7580009 38.718,36.57 C38.9380011,36.3819991 39.1979985,36.2380005 39.498,36.138 C39.7980015,36.0379995 40.1159983,35.988 40.452,35.988 C40.8120018,35.988 41.1419985,36.0379995 41.442,36.138 C41.7420015,36.2380005 42.0019989,36.3819991 42.222,36.57 C42.4420011,36.7580009 42.6119994,36.9859987 42.732,37.254 C42.8520006,37.5220013 42.912,37.8279983 42.912,38.172 L42.912,39.9 Z M41.892,38.352 C41.892,38.0959987 41.8480004,37.8780009 41.76,37.698 C41.6719996,37.5179991 41.5580007,37.3720006 41.418,37.26 C41.2779993,37.1479994 41.1240008,37.0680002 40.956,37.02 C40.7879992,36.9719998 40.6240008,36.948 40.464,36.948 C40.2959992,36.948 40.1280008,36.9719998 39.96,37.02 C39.7919992,37.0680002 39.6380007,37.1479994 39.498,37.26 C39.3579993,37.3720006 39.2440004,37.5179991 39.156,37.698 C39.0679996,37.8780009 39.024,38.0959987 39.024,38.352 L39.024,39.696 C39.024,39.9520013 39.0619996,40.1699991 39.138,40.35 C39.2140004,40.5300009 39.3159994,40.6759994 39.444,40.788 C39.5720006,40.9000006 39.7239991,40.9799998 39.9,41.028 C40.0760009,41.0760002 40.263999,41.1 40.464,41.1 C40.6240008,41.1 40.7879992,41.0760002 40.956,41.028 C41.1240008,40.9799998 41.2779993,40.9000006 41.418,40.788 C41.5580007,40.6759994 41.6719996,40.5300009 41.76,40.35 C41.8480004,40.1699991 41.892,39.9520013 41.892,39.696 L41.892,38.352 Z M45.996,36.972 L45.924,38.544 C45.8919998,39.1680031 45.8420003,39.681998 45.774,40.086 C45.7059997,40.490002 45.5840009,40.8279986 45.408,41.1 L48.36,41.1 L48.36,36.972 L45.996,36.972 Z M44.052,41.112 C44.1960007,41.0159995 44.3199995,40.9020007 44.424,40.77 C44.5280005,40.6379993 44.6159996,40.474001 44.688,40.278 C44.7600004,40.081999 44.8159998,39.8460014 44.856,39.57 C44.8960002,39.2939986 44.9279999,38.9640019 44.952,38.58 L45.096,36.06 L49.392,36.06 L49.392,41.1 L49.884,41.112 L49.884,43.524 L48.912,43.524 L48.912,42 L44.616,42 L44.616,43.524 L43.644,43.524 L43.644,41.136 L44.052,41.112 Z M55.812,39.9 C55.812,40.2440017 55.7460007,40.5499987 55.614,40.818 C55.4819993,41.0860013 55.3020011,41.3119991 55.074,41.496 C54.8459989,41.6800009 54.5840015,41.8199995 54.288,41.916 C53.9919985,42.0120005 53.6760017,42.06 53.34,42.06 C52.9959983,42.06 52.6760015,42.0120005 52.38,41.916 C52.0839985,41.8199995 51.8260011,41.6800009 51.606,41.496 C51.3859989,41.3119991 51.2120006,41.0860013 51.084,40.818 C50.9559994,40.5499987 50.892,40.2440017 50.892,39.9 L50.892,38.172 C50.892,37.8279983 50.9579993,37.5220013 51.09,37.254 C51.2220007,36.9859987 51.3979989,36.7580009 51.618,36.57 C51.8380011,36.3819991 52.0979985,36.2380005 52.398,36.138 C52.6980015,36.0379995 53.0159983,35.988 53.352,35.988 C53.7120018,35.988 54.0419985,36.0379995 54.342,36.138 C54.6420015,36.2380005 54.9019989,36.3819991 55.122,36.57 C55.3420011,36.7580009 55.5119994,36.9859987 55.632,37.254 C55.7520006,37.5220013 55.812,37.8279983 55.812,38.172 L55.812,39.9 Z M54.792,38.352 C54.792,38.0959987 54.7480004,37.8780009 54.66,37.698 C54.5719996,37.5179991 54.4580007,37.3720006 54.318,37.26 C54.1779993,37.1479994 54.0240008,37.0680002 53.856,37.02 C53.6879992,36.9719998 53.5240008,36.948 53.364,36.948 C53.1959992,36.948 53.0280008,36.9719998 52.86,37.02 C52.6919992,37.0680002 52.5380007,37.1479994 52.398,37.26 C52.2579993,37.3720006 52.1440004,37.5179991 52.056,37.698 C51.9679996,37.8780009 51.924,38.0959987 51.924,38.352 L51.924,39.696 C51.924,39.9520013 51.9619996,40.1699991 52.038,40.35 C52.1140004,40.5300009 52.2159994,40.6759994 52.344,40.788 C52.4720006,40.9000006 52.6239991,40.9799998 52.8,41.028 C52.9760009,41.0760002 53.163999,41.1 53.364,41.1 C53.5240008,41.1 53.6879992,41.0760002 53.856,41.028 C54.0240008,40.9799998 54.1779993,40.9000006 54.318,40.788 C54.4580007,40.6759994 54.5719996,40.5300009 54.66,40.35 C54.7480004,40.1699991 54.792,39.9520013 54.792,39.696 L54.792,38.352 Z M57.876,36.06 L57.996,36.684 C58.4680024,36.4039986 58.8459986,36.2200004 59.13,36.132 C59.4140014,36.0439996 59.6639989,36 59.88,36 C60.4640029,36 60.9419981,36.1719983 61.314,36.516 C61.6860019,36.8600017 61.872,37.3959964 61.872,38.124 L61.872,39.948 C61.872,40.6280034 61.6860019,41.1519982 61.314,41.52 C60.9419981,41.8880018 60.4320032,42.072 59.784,42.072 C59.5679989,42.072 59.3160014,42.0500002 59.028,42.006 C58.7399986,41.9619998 58.396002,41.8600008 57.996,41.7 L57.996,44.376 L56.976,44.376 L56.976,36.06 L57.876,36.06 Z M57.996,40.728 C58.3640018,40.8800008 58.6759987,40.9799998 58.932,41.028 C59.1880013,41.0760002 59.4399988,41.1 59.688,41.1 C59.8480008,41.1 59.9979993,41.0820002 60.138,41.046 C60.2780007,41.0099998 60.3999995,40.9460005 60.504,40.854 C60.6080005,40.7619995 60.6899997,40.6380008 60.75,40.482 C60.8100003,40.3259992 60.84,40.1320012 60.84,39.9 L60.84,38.196 C60.84,37.7399977 60.744001,37.4260009 60.552,37.254 C60.359999,37.0819991 60.1040016,36.996 59.784,36.996 C59.6719994,36.996 59.5400008,37.0159998 59.388,37.056 C59.2359992,37.0960002 59.0780008,37.1479997 58.914,37.212 C58.7499992,37.2760003 58.5880008,37.3499996 58.428,37.434 C58.2679992,37.5180004 58.1240006,37.6039996 57.996,37.692 L57.996,40.728 Z M67.908,39.9 C67.908,40.2440017 67.8420007,40.5499987 67.71,40.818 C67.5779993,41.0860013 67.3980011,41.3119991 67.17,41.496 C66.9419989,41.6800009 66.6800015,41.8199995 66.384,41.916 C66.0879985,42.0120005 65.7720017,42.06 65.436,42.06 C65.0919983,42.06 64.7720015,42.0120005 64.476,41.916 C64.1799985,41.8199995 63.9220011,41.6800009 63.702,41.496 C63.4819989,41.3119991 63.3080006,41.0860013 63.18,40.818 C63.0519994,40.5499987 62.988,40.2440017 62.988,39.9 L62.988,38.172 C62.988,37.8279983 63.0539993,37.5220013 63.186,37.254 C63.3180007,36.9859987 63.4939989,36.7580009 63.714,36.57 C63.9340011,36.3819991 64.1939985,36.2380005 64.494,36.138 C64.7940015,36.0379995 65.1119983,35.988 65.448,35.988 C65.8080018,35.988 66.1379985,36.0379995 66.438,36.138 C66.7380015,36.2380005 66.9979989,36.3819991 67.218,36.57 C67.4380011,36.7580009 67.6079994,36.9859987 67.728,37.254 C67.8480006,37.5220013 67.908,37.8279983 67.908,38.172 L67.908,39.9 Z M66.888,38.352 C66.888,38.0959987 66.8440004,37.8780009 66.756,37.698 C66.6679996,37.5179991 66.5540007,37.3720006 66.414,37.26 C66.2739993,37.1479994 66.1200008,37.0680002 65.952,37.02 C65.7839992,36.9719998 65.6200008,36.948 65.46,36.948 C65.2919992,36.948 65.1240008,36.9719998 64.956,37.02 C64.7879992,37.0680002 64.6340007,37.1479994 64.494,37.26 C64.3539993,37.3720006 64.2400004,37.5179991 64.152,37.698 C64.0639996,37.8780009 64.02,38.0959987 64.02,38.352 L64.02,39.696 C64.02,39.9520013 64.0579996,40.1699991 64.134,40.35 C64.2100004,40.5300009 64.3119994,40.6759994 64.44,40.788 C64.5680006,40.9000006 64.7199991,40.9799998 64.896,41.028 C65.0720009,41.0760002 65.259999,41.1 65.46,41.1 C65.6200008,41.1 65.7839992,41.0760002 65.952,41.028 C66.1200008,40.9799998 66.2739993,40.9000006 66.414,40.788 C66.5540007,40.6759994 66.6679996,40.5300009 66.756,40.35 C66.8440004,40.1699991 66.888,39.9520013 66.888,39.696 L66.888,38.352 Z M72.168,42 L72.168,39.48 L71.472,39.48 C71.3359993,39.48 71.2100006,39.4899999 71.094,39.51 C70.9779994,39.5300001 70.8720005,39.5699997 70.776,39.63 C70.6799995,39.6900003 70.5940004,39.7779994 70.518,39.894 C70.4419996,40.0100006 70.3760003,40.163999 70.32,40.356 L69.852,42 L68.772,42 L69.36,40.068 C69.4080002,39.9239993 69.4559998,39.7880006 69.504,39.66 C69.5520002,39.5319994 69.6119996,39.4160005 69.684,39.312 C69.7560004,39.2079995 69.8419995,39.1200004 69.942,39.048 C70.0420005,38.9759996 70.1599993,38.9240002 70.296,38.892 C70.0719989,38.8279997 69.8920007,38.698001 69.756,38.502 C69.6199993,38.305999 69.5080004,38.0640014 69.42,37.776 L68.88,36.048 L69.936,36.048 L70.464,37.764 C70.5200003,37.956001 70.5899996,38.1059995 70.674,38.214 C70.7580004,38.3220005 70.8499995,38.4039997 70.95,38.46 C71.0500005,38.5160003 71.1559994,38.5499999 71.268,38.562 C71.3800006,38.5740001 71.4919994,38.58 71.604,38.58 L72.168,38.58 L72.168,36.048 L73.188,36.048 L73.188,38.58 L73.752,38.58 C73.8640006,38.58 73.9759994,38.5740001 74.088,38.562 C74.2000006,38.5499999 74.3059995,38.5160003 74.406,38.46 C74.5060005,38.4039997 74.5959996,38.3220005 74.676,38.214 C74.7560004,38.1059995 74.8279997,37.956001 74.892,37.764 L75.42,36.048 L76.476,36.048 L75.936,37.776 C75.8479996,38.0640014 75.7360007,38.305999 75.6,38.502 C75.4639993,38.698001 75.2840011,38.8279997 75.06,38.892 C75.3320014,38.9560003 75.5339993,39.0939989 75.666,39.306 C75.7980007,39.5180011 75.9079996,39.7719985 75.996,40.068 L76.584,42 L75.504,42 L75.036,40.356 C74.9799997,40.163999 74.9140004,40.0100006 74.838,39.894 C74.7619996,39.7779994 74.6760005,39.6900003 74.58,39.63 C74.4839995,39.5699997 74.3780006,39.5300001 74.262,39.51 C74.1459994,39.4899999 74.0200007,39.48 73.884,39.48 L73.188,39.48 L73.188,42 L72.168,42 Z M81.36,42 L81.36,39.468 L78.528,39.468 L78.528,42 L77.496,42 L77.496,36.06 L78.528,36.06 L78.528,38.532 L81.36,38.532 L81.36,36.06 L82.404,36.06 L82.404,42 L81.36,42 Z M88.86,42 L88.86,36.06 L89.856,36.06 L89.856,42 L88.86,42 Z M87.252,40.164 C87.252,39.9399989 87.1680008,39.7340009 87,39.546 C86.8319992,39.3579991 86.5560019,39.264 86.172,39.264 L84.624,39.264 L84.624,41.088 L86.172,41.088 C86.5160017,41.088 86.7819991,41.0100008 86.97,40.854 C87.1580009,40.6979992 87.252,40.4680015 87.252,40.164 Z M84.636,38.364 L86.208,38.364 C86.5440017,38.364 86.8419987,38.4099995 87.102,38.502 C87.3620013,38.5940005 87.5779991,38.7199992 87.75,38.88 C87.9220009,39.0400008 88.0519996,39.2299989 88.14,39.45 C88.2280004,39.6700011 88.272,39.9079987 88.272,40.164 C88.272,40.7160028 88.0940018,41.1599983 87.738,41.496 C87.3819982,41.8320017 86.8680034,42 86.196,42 L83.604,42 L83.604,36.048 L84.636,36.048 L84.636,38.364 Z M92.688,33.636 C92.696,33.7160004 92.7199998,33.7999996 92.76,33.888 C92.8000002,33.9760004 92.8559996,34.0579996 92.928,34.134 C93.0000004,34.2100004 93.0879995,34.2719998 93.192,34.32 C93.2960005,34.3680002 93.4119994,34.392 93.54,34.392 C93.6840007,34.392 93.8099995,34.3680002 93.918,34.32 C94.0260005,34.2719998 94.1159996,34.2100004 94.188,34.134 C94.2600004,34.0579996 94.3139998,33.9760004 94.35,33.888 C94.3860002,33.7999996 94.404,33.7160004 94.404,33.636 L95.256,33.636 C95.2399999,33.7960008 95.2040003,33.9659991 95.148,34.146 C95.0919997,34.3260009 94.9980007,34.4919992 94.866,34.644 C94.7339993,34.7960008 94.5620011,34.9239995 94.35,35.028 C94.1379989,35.1320005 93.8680016,35.184 93.54,35.184 C93.2119984,35.184 92.9380011,35.1320005 92.718,35.028 C92.4979989,34.9239995 92.3220007,34.7960008 92.19,34.644 C92.0579993,34.4919992 91.9620003,34.3260009 91.902,34.146 C91.8419997,33.9659991 91.812,33.7960008 91.812,33.636 L92.688,33.636 Z M92.148,40.344 L93.036,38.988 L95.016,36.06 L95.988,36.06 L95.988,42 L94.932,42 L94.932,37.704 L94.872,37.704 L93.972,39.084 L92.004,42 L91.056,42 L91.056,36.06 L92.1,36.06 L92.1,40.344 L92.148,40.344 Z M4.452,54 L4.452,48.972 L1.608,48.972 L1.608,54 L0.588,54 L0.588,48.06 L5.484,48.06 L5.484,54 L4.452,54 Z M10.38,53.424 C9.90799764,53.6880013 9.5220015,53.8579996 9.222,53.934 C8.9219985,54.0100004 8.6520012,54.048 8.412,54.048 C7.83599712,54.048 7.37600172,53.8880016 7.032,53.568 C6.68799828,53.2479984 6.516,52.8120028 6.516,52.26 C6.516,51.9319984 6.58999926,51.6560011 6.738,51.432 C6.88600074,51.2079989 7.0699989,51.0260007 7.29,50.886 C7.5100011,50.7459993 7.74599874,50.6460003 7.998,50.586 C8.25000126,50.5259997 8.475999,50.496 8.676,50.496 L10.416,50.496 L10.416,50.04 C10.416,49.6239979 10.3000012,49.3340008 10.068,49.17 C9.83599884,49.0059992 9.50400216,48.924 9.072,48.924 C8.86399896,48.924 8.6100015,48.9539997 8.31,49.014 C8.0099985,49.0740003 7.70800152,49.2279988 7.404,49.476 L6.9,48.696 C7.28400192,48.3999985 7.67199804,48.2080004 8.064,48.12 C8.45600196,48.0319996 8.81999832,47.988 9.156,47.988 C9.93200388,47.988 10.5059981,48.1579983 10.878,48.498 C11.2500019,48.8380017 11.436,49.3599965 11.436,50.064 L11.436,54 L10.536,54 L10.416,53.448 L10.38,53.424 Z M10.416,51.348 L8.844,51.348 C8.71599936,51.348 8.57800074,51.3579999 8.43,51.378 C8.28199926,51.3980001 8.14400064,51.4379997 8.016,51.498 C7.88799936,51.5580003 7.78200042,51.6499994 7.698,51.774 C7.61399958,51.8980006 7.572,52.059999 7.572,52.26 C7.572,52.5480014 7.66999902,52.7639993 7.866,52.908 C8.06200098,53.0520007 8.31199848,53.124 8.616,53.124 C8.76800076,53.124 8.92599918,53.1020002 9.09,53.058 C9.25400082,53.0139998 9.41399922,52.9600003 9.57,52.896 C9.72600078,52.8319997 9.87599928,52.7620004 10.02,52.686 C10.1640007,52.6099996 10.2959994,52.5400003 10.416,52.476 L10.416,51.348 Z M14.928,47.988 C15.2720017,47.988 15.6219982,48.0339995 15.978,48.126 C16.3340018,48.2180005 16.6519986,48.4159985 16.932,48.72 L16.32,49.5 C16.0559987,49.2519988 15.8100011,49.0980003 15.582,49.038 C15.3539989,48.9779997 15.1520009,48.948 14.976,48.948 C14.8239992,48.948 14.6660008,48.9719998 14.502,49.02 C14.3379992,49.0680002 14.1900007,49.1479994 14.058,49.26 C13.9259993,49.3720006 13.8180004,49.5179991 13.734,49.698 C13.6499996,49.8780009 13.608,50.0959987 13.608,50.352 L13.608,51.696 C13.608,51.9520013 13.6479996,52.1699991 13.728,52.35 C13.8080004,52.5300009 13.9119994,52.6759994 14.04,52.788 C14.1680006,52.9000006 14.3139992,52.9799998 14.478,53.028 C14.6420008,53.0760002 14.8079992,53.1 14.976,53.1 C15.1520009,53.1 15.3659987,53.0640004 15.618,52.992 C15.8700013,52.9199996 16.0879991,52.7920009 16.272,52.608 L16.908,53.328 C16.6279986,53.6080014 16.3180017,53.7999995 15.978,53.904 C15.6379983,54.0080005 15.2960017,54.06 14.952,54.06 C14.5999982,54.06 14.2800014,54.0080005 13.992,53.904 C13.7039986,53.7999995 13.4540011,53.6560009 13.242,53.472 C13.0299989,53.2879991 12.8660006,53.0660013 12.75,52.806 C12.6339994,52.5459987 12.576,52.2600016 12.576,51.948 L12.576,50.184 C12.576,49.8479983 12.6399994,49.5440014 12.768,49.272 C12.8960006,48.9999986 13.0679989,48.768001 13.284,48.576 C13.5000011,48.383999 13.7499986,48.2380005 14.034,48.138 C14.3180014,48.0379995 14.6159984,47.988 14.928,47.988 Z M20.076,47.988 C20.4200017,47.988 20.7699982,48.0339995 21.126,48.126 C21.4820018,48.2180005 21.7999986,48.4159985 22.08,48.72 L21.468,49.5 C21.2039987,49.2519988 20.9580011,49.0980003 20.73,49.038 C20.5019989,48.9779997 20.3000009,48.948 20.124,48.948 C19.9719992,48.948 19.8140008,48.9719998 19.65,49.02 C19.4859992,49.0680002 19.3380007,49.1479994 19.206,49.26 C19.0739993,49.3720006 18.9660004,49.5179991 18.882,49.698 C18.7979996,49.8780009 18.756,50.0959987 18.756,50.352 L18.756,51.696 C18.756,51.9520013 18.7959996,52.1699991 18.876,52.35 C18.9560004,52.5300009 19.0599994,52.6759994 19.188,52.788 C19.3160006,52.9000006 19.4619992,52.9799998 19.626,53.028 C19.7900008,53.0760002 19.9559992,53.1 20.124,53.1 C20.3000009,53.1 20.5139987,53.0640004 20.766,52.992 C21.0180013,52.9199996 21.2359991,52.7920009 21.42,52.608 L22.056,53.328 C21.7759986,53.6080014 21.4660017,53.7999995 21.126,53.904 C20.7859983,54.0080005 20.4440017,54.06 20.1,54.06 C19.7479982,54.06 19.4280014,54.0080005 19.14,53.904 C18.8519986,53.7999995 18.6020011,53.6560009 18.39,53.472 C18.1779989,53.2879991 18.0140006,53.0660013 17.898,52.806 C17.7819994,52.5459987 17.724,52.2600016 17.724,51.948 L17.724,50.184 C17.724,49.8479983 17.7879994,49.5440014 17.916,49.272 C18.0440006,48.9999986 18.2159989,48.768001 18.432,48.576 C18.6480011,48.383999 18.8979986,48.2380005 19.182,48.138 C19.4660014,48.0379995 19.7639984,47.988 20.076,47.988 Z M26.628,53.424 C26.1559976,53.6880013 25.7700015,53.8579996 25.47,53.934 C25.1699985,54.0100004 24.9000012,54.048 24.66,54.048 C24.0839971,54.048 23.6240017,53.8880016 23.28,53.568 C22.9359983,53.2479984 22.764,52.8120028 22.764,52.26 C22.764,51.9319984 22.8379993,51.6560011 22.986,51.432 C23.1340007,51.2079989 23.3179989,51.0260007 23.538,50.886 C23.7580011,50.7459993 23.9939987,50.6460003 24.246,50.586 C24.4980013,50.5259997 24.723999,50.496 24.924,50.496 L26.664,50.496 L26.664,50.04 C26.664,49.6239979 26.5480012,49.3340008 26.316,49.17 C26.0839988,49.0059992 25.7520022,48.924 25.32,48.924 C25.111999,48.924 24.8580015,48.9539997 24.558,49.014 C24.2579985,49.0740003 23.9560015,49.2279988 23.652,49.476 L23.148,48.696 C23.5320019,48.3999985 23.919998,48.2080004 24.312,48.12 C24.704002,48.0319996 25.0679983,47.988 25.404,47.988 C26.1800039,47.988 26.7539981,48.1579983 27.126,48.498 C27.4980019,48.8380017 27.684,49.3599965 27.684,50.064 L27.684,54 L26.784,54 L26.664,53.448 L26.628,53.424 Z M26.664,51.348 L25.092,51.348 C24.9639994,51.348 24.8260007,51.3579999 24.678,51.378 C24.5299993,51.3980001 24.3920006,51.4379997 24.264,51.498 C24.1359994,51.5580003 24.0300004,51.6499994 23.946,51.774 C23.8619996,51.8980006 23.82,52.059999 23.82,52.26 C23.82,52.5480014 23.917999,52.7639993 24.114,52.908 C24.310001,53.0520007 24.5599985,53.124 24.864,53.124 C25.0160008,53.124 25.1739992,53.1020002 25.338,53.058 C25.5020008,53.0139998 25.6619992,52.9600003 25.818,52.896 C25.9740008,52.8319997 26.1239993,52.7620004 26.268,52.686 C26.4120007,52.6099996 26.5439994,52.5400003 26.664,52.476 L26.664,51.348 Z M31.956,54 L31.956,51.48 L31.26,51.48 C31.1239993,51.48 30.9980006,51.4899999 30.882,51.51 C30.7659994,51.5300001 30.6600005,51.5699997 30.564,51.63 C30.4679995,51.6900003 30.3820004,51.7779994 30.306,51.894 C30.2299996,52.0100006 30.1640003,52.163999 30.108,52.356 L29.64,54 L28.56,54 L29.148,52.068 C29.1960002,51.9239993 29.2439998,51.7880006 29.292,51.66 C29.3400002,51.5319994 29.3999996,51.4160005 29.472,51.312 C29.5440004,51.2079995 29.6299995,51.1200004 29.73,51.048 C29.8300005,50.9759996 29.9479993,50.9240002 30.084,50.892 C29.8599989,50.8279997 29.6800007,50.698001 29.544,50.502 C29.4079993,50.305999 29.2960004,50.0640014 29.208,49.776 L28.668,48.048 L29.724,48.048 L30.252,49.764 C30.3080003,49.956001 30.3779996,50.1059995 30.462,50.214 C30.5460004,50.3220005 30.6379995,50.4039997 30.738,50.46 C30.8380005,50.5160003 30.9439994,50.5499999 31.056,50.562 C31.1680006,50.5740001 31.2799994,50.58 31.392,50.58 L31.956,50.58 L31.956,48.048 L32.976,48.048 L32.976,50.58 L33.54,50.58 C33.6520006,50.58 33.7639994,50.5740001 33.876,50.562 C33.9880006,50.5499999 34.0939995,50.5160003 34.194,50.46 C34.2940005,50.4039997 34.3839996,50.3220005 34.464,50.214 C34.5440004,50.1059995 34.6159997,49.956001 34.68,49.764 L35.208,48.048 L36.264,48.048 L35.724,49.776 C35.6359996,50.0640014 35.5240007,50.305999 35.388,50.502 C35.2519993,50.698001 35.0720011,50.8279997 34.848,50.892 C35.1200014,50.9560003 35.3219993,51.0939989 35.454,51.306 C35.5860007,51.5180011 35.6959996,51.7719985 35.784,52.068 L36.372,54 L35.292,54 L34.824,52.356 C34.7679997,52.163999 34.7020004,52.0100006 34.626,51.894 C34.5499996,51.7779994 34.4640005,51.6900003 34.368,51.63 C34.2719995,51.5699997 34.1660006,51.5300001 34.05,51.51 C33.9339994,51.4899999 33.8080007,51.48 33.672,51.48 L32.976,51.48 L32.976,54 L31.956,54 Z M38.364,52.344 L39.252,50.988 L41.232,48.06 L42.204,48.06 L42.204,54 L41.148,54 L41.148,49.704 L41.088,49.704 L40.188,51.084 L38.22,54 L37.272,54 L37.272,48.06 L38.316,48.06 L38.316,52.344 L38.364,52.344 Z M44.304,48.06 L44.424,48.684 C44.8960024,48.4039986 45.2739986,48.2200004 45.558,48.132 C45.8420014,48.0439996 46.0919989,48 46.308,48 C46.8920029,48 47.3699981,48.1719983 47.742,48.516 C48.1140019,48.8600017 48.3,49.3959964 48.3,50.124 L48.3,51.948 C48.3,52.6280034 48.1140019,53.1519982 47.742,53.52 C47.3699981,53.8880018 46.8600032,54.072 46.212,54.072 C45.9959989,54.072 45.7440014,54.0500002 45.456,54.006 C45.1679986,53.9619998 44.824002,53.8600008 44.424,53.7 L44.424,56.376 L43.404,56.376 L43.404,48.06 L44.304,48.06 Z M44.424,52.728 C44.7920018,52.8800008 45.1039987,52.9799998 45.36,53.028 C45.6160013,53.0760002 45.8679988,53.1 46.116,53.1 C46.2760008,53.1 46.4259993,53.0820002 46.566,53.046 C46.7060007,53.0099998 46.8279995,52.9460005 46.932,52.854 C47.0360005,52.7619995 47.1179997,52.6380008 47.178,52.482 C47.2380003,52.3259992 47.268,52.1320012 47.268,51.9 L47.268,50.196 C47.268,49.7399977 47.172001,49.4260009 46.98,49.254 C46.787999,49.0819991 46.5320016,48.996 46.212,48.996 C46.0999994,48.996 45.9680008,49.0159998 45.816,49.056 C45.6639992,49.0960002 45.5060008,49.1479997 45.342,49.212 C45.1779992,49.2760003 45.0160008,49.3499996 44.856,49.434 C44.6959992,49.5180004 44.5520006,49.6039996 44.424,49.692 L44.424,52.728 Z M51.756,47.988 C52.1000017,47.988 52.4499982,48.0339995 52.806,48.126 C53.1620018,48.2180005 53.4799986,48.4159985 53.76,48.72 L53.148,49.5 C52.8839987,49.2519988 52.6380011,49.0980003 52.41,49.038 C52.1819989,48.9779997 51.9800009,48.948 51.804,48.948 C51.6519992,48.948 51.4940008,48.9719998 51.33,49.02 C51.1659992,49.0680002 51.0180007,49.1479994 50.886,49.26 C50.7539993,49.3720006 50.6460004,49.5179991 50.562,49.698 C50.4779996,49.8780009 50.436,50.0959987 50.436,50.352 L50.436,51.696 C50.436,51.9520013 50.4759996,52.1699991 50.556,52.35 C50.6360004,52.5300009 50.7399994,52.6759994 50.868,52.788 C50.9960006,52.9000006 51.1419992,52.9799998 51.306,53.028 C51.4700008,53.0760002 51.6359992,53.1 51.804,53.1 C51.9800009,53.1 52.1939987,53.0640004 52.446,52.992 C52.6980013,52.9199996 52.9159991,52.7920009 53.1,52.608 L53.736,53.328 C53.4559986,53.6080014 53.1460017,53.7999995 52.806,53.904 C52.4659983,54.0080005 52.1240017,54.06 51.78,54.06 C51.4279982,54.06 51.1080014,54.0080005 50.82,53.904 C50.5319986,53.7999995 50.2820011,53.6560009 50.07,53.472 C49.8579989,53.2879991 49.6940006,53.0660013 49.578,52.806 C49.4619994,52.5459987 49.404,52.2600016 49.404,51.948 L49.404,50.184 C49.404,49.8479983 49.4679994,49.5440014 49.596,49.272 C49.7240006,48.9999986 49.8959989,48.768001 50.112,48.576 C50.3280011,48.383999 50.5779986,48.2380005 50.862,48.138 C51.1460014,48.0379995 51.4439984,47.988 51.756,47.988 Z M54.588,54 L54.588,48.048 L55.608,48.048 L55.608,50.58 L56.616,50.58 C56.7280006,50.58 56.8399994,50.5740001 56.952,50.562 C57.0640006,50.5499999 57.1679995,50.5160003 57.264,50.46 C57.3600005,50.4039997 57.4499996,50.3220005 57.534,50.214 C57.6180004,50.1059995 57.6919997,49.956001 57.756,49.764 L58.332,48.048 L59.388,48.048 L58.8,49.776 C58.7039995,50.0640014 58.5900007,50.305999 58.458,50.502 C58.3259993,50.698001 58.1480011,50.8279997 57.924,50.892 C58.1960014,50.9560003 58.3959994,51.0939989 58.524,51.306 C58.6520006,51.5180011 58.7639995,51.7719985 58.86,52.068 L59.496,54 L58.416,54 L57.9,52.356 C57.8359997,52.163999 57.7660004,52.0100006 57.69,51.894 C57.6139996,51.7779994 57.5280005,51.6900003 57.432,51.63 C57.3359995,51.5699997 57.2320006,51.5300001 57.12,51.51 C57.0079994,51.4899999 56.8840007,51.48 56.748,51.48 L55.608,51.48 L55.608,54 L54.588,54 Z M61.488,52.344 L62.376,50.988 L64.356,48.06 L65.328,48.06 L65.328,54 L64.272,54 L64.272,49.704 L64.212,49.704 L63.312,51.084 L61.344,54 L60.396,54 L60.396,48.06 L61.44,48.06 L61.44,52.344 L61.488,52.344 Z M68.16,45.636 C68.168,45.7160004 68.1919998,45.7999996 68.232,45.888 C68.2720002,45.9760004 68.3279996,46.0579996 68.4,46.134 C68.4720004,46.2100004 68.5599995,46.2719998 68.664,46.32 C68.7680005,46.3680002 68.8839994,46.392 69.012,46.392 C69.1560007,46.392 69.2819995,46.3680002 69.39,46.32 C69.4980005,46.2719998 69.5879996,46.2100004 69.66,46.134 C69.7320004,46.0579996 69.7859998,45.9760004 69.822,45.888 C69.8580002,45.7999996 69.876,45.7160004 69.876,45.636 L70.728,45.636 C70.7119999,45.7960008 70.6760003,45.9659991 70.62,46.146 C70.5639997,46.3260009 70.4700007,46.4919992 70.338,46.644 C70.2059993,46.7960008 70.0340011,46.9239995 69.822,47.028 C69.6099989,47.1320005 69.3400016,47.184 69.012,47.184 C68.6839984,47.184 68.4100011,47.1320005 68.19,47.028 C67.9699989,46.9239995 67.7940007,46.7960008 67.662,46.644 C67.5299993,46.4919992 67.4340003,46.3260009 67.374,46.146 C67.3139997,45.9659991 67.284,45.7960008 67.284,45.636 L68.16,45.636 Z M67.62,52.344 L68.508,50.988 L70.488,48.06 L71.46,48.06 L71.46,54 L70.404,54 L70.404,49.704 L70.344,49.704 L69.444,51.084 L67.476,54 L66.528,54 L66.528,48.06 L67.572,48.06 L67.572,52.344 L67.62,52.344 Z M79.392,54 L79.392,48.972 L76.548,48.972 L76.548,54 L75.528,54 L75.528,48.06 L80.424,48.06 L80.424,54 L79.392,54 Z M82.596,51.408 L82.596,51.804 C82.596,52.0440012 82.6359996,52.2459992 82.716,52.41 C82.7960004,52.5740008 82.9059993,52.7099995 83.046,52.818 C83.1860007,52.9260005 83.3459991,53.0039998 83.526,53.052 C83.7060009,53.1000002 83.891999,53.124 84.084,53.124 C84.284001,53.124 84.5159987,53.0840004 84.78,53.004 C85.0440013,52.9239996 85.2999988,52.7680012 85.548,52.536 L86.196,53.244 C85.8919985,53.5560016 85.5540019,53.7699994 85.182,53.886 C84.8099981,54.0020006 84.4360019,54.06 84.06,54.06 C83.7239983,54.06 83.4040015,54.0140005 83.1,53.922 C82.7959985,53.8299995 82.5300011,53.6940009 82.302,53.514 C82.0739989,53.3339991 81.8940007,53.1080014 81.762,52.836 C81.6299993,52.5639986 81.564,52.2480018 81.564,51.888 L81.564,50.316 C81.564,49.9639982 81.6239994,49.6440014 81.744,49.356 C81.8640006,49.0679986 82.0299989,48.824001 82.242,48.624 C82.4540011,48.423999 82.7059985,48.2700005 82.998,48.162 C83.2900015,48.0539995 83.6119982,48 83.964,48 C84.3160018,48 84.6399985,48.0519995 84.936,48.156 C85.2320015,48.2600005 85.4859989,48.407999 85.698,48.6 C85.9100011,48.792001 86.0739994,49.0259986 86.19,49.302 C86.3060006,49.5780014 86.364,49.8879983 86.364,50.232 L86.364,51.408 L82.596,51.408 Z M85.32,50.34 C85.32,50.0919988 85.2840004,49.8800009 85.212,49.704 C85.1399996,49.5279991 85.0420006,49.3820006 84.918,49.266 C84.7939994,49.1499994 84.6500008,49.0660003 84.486,49.014 C84.3219992,48.9619997 84.1480009,48.936 83.964,48.936 C83.7799991,48.936 83.6080008,48.9639997 83.448,49.02 C83.2879992,49.0760003 83.1440006,49.1599994 83.016,49.272 C82.8879994,49.3840006 82.7880004,49.5259991 82.716,49.698 C82.6439996,49.8700009 82.608,50.0719988 82.608,50.304 L82.608,50.568 L85.32,50.568 L85.32,50.34 Z M88.296,48.06 L88.416,48.684 C88.8880024,48.4039986 89.2659986,48.2200004 89.55,48.132 C89.8340014,48.0439996 90.0839989,48 90.3,48 C90.8840029,48 91.3619981,48.1719983 91.734,48.516 C92.1060019,48.8600017 92.292,49.3959964 92.292,50.124 L92.292,51.948 C92.292,52.6280034 92.1060019,53.1519982 91.734,53.52 C91.3619981,53.8880018 90.8520032,54.072 90.204,54.072 C89.9879989,54.072 89.7360014,54.0500002 89.448,54.006 C89.1599986,53.9619998 88.816002,53.8600008 88.416,53.7 L88.416,56.376 L87.396,56.376 L87.396,48.06 L88.296,48.06 Z M88.416,52.728 C88.7840018,52.8800008 89.0959987,52.9799998 89.352,53.028 C89.6080013,53.0760002 89.8599988,53.1 90.108,53.1 C90.2680008,53.1 90.4179993,53.0820002 90.558,53.046 C90.6980007,53.0099998 90.8199995,52.9460005 90.924,52.854 C91.0280005,52.7619995 91.1099997,52.6380008 91.17,52.482 C91.2300003,52.3259992 91.26,52.1320012 91.26,51.9 L91.26,50.196 C91.26,49.7399977 91.164001,49.4260009 90.972,49.254 C90.779999,49.0819991 90.5240016,48.996 90.204,48.996 C90.0919994,48.996 89.9600008,49.0159998 89.808,49.056 C89.6559992,49.0960002 89.4980008,49.1479997 89.334,49.212 C89.1699992,49.2760003 89.0080008,49.3499996 88.848,49.434 C88.6879992,49.5180004 88.5440006,49.6039996 88.416,49.692 L88.416,52.728 Z M94.428,51.408 L94.428,51.804 C94.428,52.0440012 94.4679996,52.2459992 94.548,52.41 C94.6280004,52.5740008 94.7379993,52.7099995 94.878,52.818 C95.0180007,52.9260005 95.1779991,53.0039998 95.358,53.052 C95.5380009,53.1000002 95.723999,53.124 95.916,53.124 C96.116001,53.124 96.3479987,53.0840004 96.612,53.004 C96.8760013,52.9239996 97.1319988,52.7680012 97.38,52.536 L98.028,53.244 C97.7239985,53.5560016 97.3860019,53.7699994 97.014,53.886 C96.6419981,54.0020006 96.2680019,54.06 95.892,54.06 C95.5559983,54.06 95.2360015,54.0140005 94.932,53.922 C94.6279985,53.8299995 94.3620011,53.6940009 94.134,53.514 C93.9059989,53.3339991 93.7260007,53.1080014 93.594,52.836 C93.4619993,52.5639986 93.396,52.2480018 93.396,51.888 L93.396,50.316 C93.396,49.9639982 93.4559994,49.6440014 93.576,49.356 C93.6960006,49.0679986 93.8619989,48.824001 94.074,48.624 C94.2860011,48.423999 94.5379985,48.2700005 94.83,48.162 C95.1220015,48.0539995 95.4439982,48 95.796,48 C96.1480018,48 96.4719985,48.0519995 96.768,48.156 C97.0640015,48.2600005 97.3179989,48.407999 97.53,48.6 C97.7420011,48.792001 97.9059994,49.0259986 98.022,49.302 C98.1380006,49.5780014 98.196,49.8879983 98.196,50.232 L98.196,51.408 L94.428,51.408 Z M97.152,50.34 C97.152,50.0919988 97.1160004,49.8800009 97.044,49.704 C96.9719996,49.5279991 96.8740006,49.3820006 96.75,49.266 C96.6259994,49.1499994 96.4820008,49.0660003 96.318,49.014 C96.1539992,48.9619997 95.9800009,48.936 95.796,48.936 C95.6119991,48.936 95.4400008,48.9639997 95.28,49.02 C95.1199992,49.0760003 94.9760006,49.1599994 94.848,49.272 C94.7199994,49.3840006 94.6200004,49.5259991 94.548,49.698 C94.4759996,49.8700009 94.44,50.0719988 94.44,50.304 L94.44,50.568 L97.152,50.568 L97.152,50.34 Z M103.932,52.2 C103.932,52.4160011 103.892,52.6319989 103.812,52.848 C103.732,53.0640011 103.614001,53.2579991 103.458,53.43 C103.301999,53.6020009 103.106001,53.7399995 102.87,53.844 C102.633999,53.9480005 102.360002,54 102.048,54 L99.156,54 L99.156,48.06 L102.024,48.06 C102.336002,48.06 102.603999,48.1039996 102.828,48.192 C103.052001,48.2800004 103.237999,48.3999992 103.386,48.552 C103.534001,48.7040008 103.644,48.877999 103.716,49.074 C103.788,49.270001 103.824,49.4759989 103.824,49.692 C103.824,49.9080011 103.768001,50.1279989 103.656,50.352 C103.543999,50.5760011 103.364001,50.7559993 103.116,50.892 C103.412001,51.0280007 103.621999,51.2219987 103.746,51.474 C103.870001,51.7260013 103.932,51.9679988 103.932,52.2 Z M102.888,52.2 C102.888,51.9359987 102.794001,51.7300007 102.606,51.582 C102.417999,51.4339993 102.208001,51.36 101.976,51.36 L100.2,51.36 L100.2,53.088 L101.868,53.088 C102.228002,53.088 102.487999,53.0100008 102.648,52.854 C102.808001,52.6979992 102.888,52.4800014 102.888,52.2 Z M102.792,49.704 C102.792,49.4479987 102.696001,49.2620006 102.504,49.146 C102.311999,49.0299994 102.100001,48.972 101.868,48.972 L100.2,48.972 L100.2,50.436 L101.928,50.436 C102.192001,50.436 102.401999,50.3740006 102.558,50.25 C102.714001,50.1259994 102.792,49.9440012 102.792,49.704 Z M109.908,51.9 C109.908,52.2440017 109.842001,52.5499987 109.71,52.818 C109.577999,53.0860013 109.398001,53.3119991 109.17,53.496 C108.941999,53.6800009 108.680001,53.8199995 108.384,53.916 C108.087999,54.0120005 107.772002,54.06 107.436,54.06 C107.091998,54.06 106.772001,54.0120005 106.476,53.916 C106.179999,53.8199995 105.922001,53.6800009 105.702,53.496 C105.481999,53.3119991 105.308001,53.0860013 105.18,52.818 C105.051999,52.5499987 104.988,52.2440017 104.988,51.9 L104.988,50.172 C104.988,49.8279983 105.053999,49.5220013 105.186,49.254 C105.318001,48.9859987 105.493999,48.7580009 105.714,48.57 C105.934001,48.3819991 106.193999,48.2380005 106.494,48.138 C106.794002,48.0379995 107.111998,47.988 107.448,47.988 C107.808002,47.988 108.137998,48.0379995 108.438,48.138 C108.738001,48.2380005 108.997999,48.3819991 109.218,48.57 C109.438001,48.7580009 109.607999,48.9859987 109.728,49.254 C109.848001,49.5220013 109.908,49.8279983 109.908,50.172 L109.908,51.9 Z M108.888,50.352 C108.888,50.0959987 108.844,49.8780009 108.756,49.698 C108.668,49.5179991 108.554001,49.3720006 108.414,49.26 C108.273999,49.1479994 108.120001,49.0680002 107.952,49.02 C107.783999,48.9719998 107.620001,48.948 107.46,48.948 C107.291999,48.948 107.124001,48.9719998 106.956,49.02 C106.787999,49.0680002 106.634001,49.1479994 106.494,49.26 C106.353999,49.3720006 106.24,49.5179991 106.152,49.698 C106.064,49.8780009 106.02,50.0959987 106.02,50.352 L106.02,51.696 C106.02,51.9520013 106.058,52.1699991 106.134,52.35 C106.21,52.5300009 106.311999,52.6759994 106.44,52.788 C106.568001,52.9000006 106.719999,52.9799998 106.896,53.028 C107.072001,53.0760002 107.259999,53.1 107.46,53.1 C107.620001,53.1 107.783999,53.0760002 107.952,53.028 C108.120001,52.9799998 108.273999,52.9000006 108.414,52.788 C108.554001,52.6759994 108.668,52.5300009 108.756,52.35 C108.844,52.1699991 108.888,51.9520013 108.888,51.696 L108.888,50.352 Z M111.252,52.596 C111.460001,52.7800009 111.705999,52.9159996 111.99,53.004 C112.274001,53.0920004 112.531999,53.136 112.764,53.136 C113.020001,53.136 113.233999,53.1100003 113.406,53.058 C113.578001,53.0059997 113.717999,52.9380004 113.826,52.854 C113.934001,52.7699996 114.012,52.6740005 114.06,52.566 C114.108,52.4579995 114.132,52.3480006 114.132,52.236 C114.132,51.9559986 114.026001,51.7440007 113.814,51.6 C113.601999,51.4559993 113.336002,51.384 113.016,51.384 L112.2,51.384 L112.2,50.532 L113.04,50.532 C113.360002,50.532 113.607999,50.4540008 113.784,50.298 C113.960001,50.1419992 114.048,49.9480012 114.048,49.716 C114.048,49.4519987 113.932001,49.2580006 113.7,49.134 C113.467999,49.0099994 113.204001,48.948 112.908,48.948 C112.675999,48.948 112.434001,48.9819997 112.182,49.05 C111.929999,49.1180003 111.700001,49.2439991 111.492,49.428 L110.856,48.72 C111.136001,48.4559987 111.463998,48.2680006 111.84,48.156 C112.216002,48.0439994 112.591998,47.988 112.968,47.988 C113.312002,47.988 113.613999,48.0319996 113.874,48.12 C114.134001,48.2080004 114.349999,48.3279992 114.522,48.48 C114.694001,48.6320008 114.824,48.805999 114.912,49.002 C115,49.198001 115.044,49.4079989 115.044,49.632 C115.044,49.7200004 115.036,49.8219994 115.02,49.938 C115.004,50.0540006 114.966,50.1719994 114.906,50.292 C114.846,50.4120006 114.762001,50.5259995 114.654,50.634 C114.545999,50.7420005 114.400001,50.8319996 114.216,50.904 C114.400001,50.9760004 114.551999,51.0679994 114.672,51.18 C114.792001,51.2920006 114.886,51.4119994 114.954,51.54 C115.022,51.6680006 115.068,51.7919994 115.092,51.912 C115.116,52.0320006 115.128,52.1359996 115.128,52.224 C115.128,52.4880013 115.08,52.7299989 114.984,52.95 C114.888,53.1700011 114.744001,53.3619992 114.552,53.526 C114.359999,53.6900008 114.120001,53.8179995 113.832,53.91 C113.543999,54.0020005 113.208002,54.048 112.824,54.048 C112.439998,54.048 112.058002,53.9940005 111.678,53.886 C111.297998,53.7779995 110.948002,53.5840014 110.628,53.304 L111.252,52.596 Z M117.816,51.996 C117.167997,51.996 116.686002,51.8120018 116.37,51.444 C116.053998,51.0759982 115.896,50.5520034 115.896,49.872 L115.896,48.036 L116.928,48.036 L116.928,49.74 C116.928,50.2040023 117.027999,50.5279991 117.228,50.712 C117.428001,50.8960009 117.679998,50.988 117.984,50.988 C118.232001,50.988 118.515998,50.9280006 118.836,50.808 C119.156002,50.6879994 119.467998,50.528001 119.772,50.328 L119.772,48.036 L120.804,48.036 L120.804,54 L119.772,54 L119.772,51.348 C119.539999,51.4840007 119.328001,51.5939996 119.136,51.678 C118.943999,51.7620004 118.768001,51.8279998 118.608,51.876 C118.447999,51.9240002 118.302001,51.9559999 118.17,51.972 C118.037999,51.9880001 117.920001,51.996 117.816,51.996 Z M123.024,52.344 L123.912,50.988 L125.892,48.06 L126.864,48.06 L126.864,54 L125.808,54 L125.808,49.704 L125.748,49.704 L124.848,51.084 L122.88,54 L121.932,54 L121.932,48.06 L122.976,48.06 L122.976,52.344 L123.024,52.344 Z M128.064,54 L128.064,48.048 L129.084,48.048 L129.084,50.58 L130.092,50.58 C130.204001,50.58 130.315999,50.5740001 130.428,50.562 C130.540001,50.5499999 130.644,50.5160003 130.74,50.46 C130.836,50.4039997 130.926,50.3220005 131.01,50.214 C131.094,50.1059995 131.168,49.956001 131.232,49.764 L131.808,48.048 L132.864,48.048 L132.276,49.776 C132.18,50.0640014 132.066001,50.305999 131.934,50.502 C131.801999,50.698001 131.624001,50.8279997 131.4,50.892 C131.672001,50.9560003 131.871999,51.0939989 132,51.306 C132.128001,51.5180011 132.24,51.7719985 132.336,52.068 L132.972,54 L131.892,54 L131.376,52.356 C131.312,52.163999 131.242,52.0100006 131.166,51.894 C131.09,51.7779994 131.004,51.6900003 130.908,51.63 C130.812,51.5699997 130.708001,51.5300001 130.596,51.51 C130.483999,51.4899999 130.360001,51.48 130.224,51.48 L129.084,51.48 L129.084,54 L128.064,54 Z" id="железнодорожный-пасс"></path>
            </g>
        </g>
    </g>
</svg>