<svg width="182" height="2" viewBox="0 0 182 2" fill="none" xmlns="http://www.w3.org/2000/svg">
<path opacity="0.4" fill-rule="evenodd" clip-rule="evenodd" d="M2 1C2 1.55228 1.55228 2 1 2C0.447715 2 0 1.55228 0 1C0 0.447715 0.447715 0 1 0C1.55228 0 2 0.447715 2 1ZM12 1C12 1.55228 11.5523 2 11 2C10.4477 2 10 1.55228 10 1C10 0.447715 10.4477 0 11 0C11.5523 0 12 0.447715 12 1ZM21 2C21.5523 2 22 1.55228 22 1C22 0.447715 21.5523 0 21 0C20.4477 0 20 0.447715 20 1C20 1.55228 20.4477 2 21 2ZM32 1C32 1.55228 31.5523 2 31 2C30.4477 2 30 1.55228 30 1C30 0.447715 30.4477 0 31 0C31.5523 0 32 0.447715 32 1ZM41 2C41.5523 2 42 1.55228 42 1C42 0.447715 41.5523 0 41 0C40.4477 0 40 0.447715 40 1C40 1.55228 40.4477 2 41 2ZM52 1C52 1.55228 51.5523 2 51 2C50.4477 2 50 1.55228 50 1C50 0.447715 50.4477 0 51 0C51.5523 0 52 0.447715 52 1ZM61 2C61.5523 2 62 1.55228 62 1C62 0.447715 61.5523 0 61 0C60.4477 0 60 0.447715 60 1C60 1.55228 60.4477 2 61 2ZM72 1C72 1.55228 71.5523 2 71 2C70.4477 2 70 1.55228 70 1C70 0.447715 70.4477 0 71 0C71.5523 0 72 0.447715 72 1ZM82 1C82 1.55228 81.5523 2 81 2C80.4477 2 80 1.55228 80 1C80 0.447715 80.4477 0 81 0C81.5523 0 82 0.447715 82 1ZM91 2C91.5523 2 92 1.55228 92 1C92 0.447715 91.5523 0 91 0C90.4477 0 90 0.447715 90 1C90 1.55228 90.4477 2 91 2ZM102 1C102 1.55228 101.552 2 101 2C100.448 2 100 1.55228 100 1C100 0.447715 100.448 0 101 0C101.552 0 102 0.447715 102 1ZM111 2C111.552 2 112 1.55228 112 1C112 0.447715 111.552 0 111 0C110.448 0 110 0.447715 110 1C110 1.55228 110.448 2 111 2ZM122 1C122 1.55228 121.552 2 121 2C120.448 2 120 1.55228 120 1C120 0.447715 120.448 0 121 0C121.552 0 122 0.447715 122 1ZM131 2C131.552 2 132 1.55228 132 1C132 0.447715 131.552 0 131 0C130.448 0 130 0.447715 130 1C130 1.55228 130.448 2 131 2ZM141 2C141.552 2 142 1.55228 142 1C142 0.447715 141.552 0 141 0C140.448 0 140 0.447715 140 1C140 1.55228 140.448 2 141 2ZM151 2C151.552 2 152 1.55228 152 1C152 0.447715 151.552 0 151 0C150.448 0 150 0.447715 150 1C150 1.55228 150.448 2 151 2ZM162 1C162 1.55228 161.552 2 161 2C160.448 2 160 1.55228 160 1C160 0.447715 160.448 0 161 0C161.552 0 162 0.447715 162 1ZM171 2C171.552 2 172 1.55228 172 1C172 0.447715 171.552 0 171 0C170.448 0 170 0.447715 170 1C170 1.55228 170.448 2 171 2ZM182 1C182 1.55228 181.552 2 181 2C180.448 2 180 1.55228 180 1C180 0.447715 180.448 0 181 0C181.552 0 182 0.447715 182 1Z" fill="#CC0A31"/>
</svg>
