<svg width="100" height="100" viewBox="0 0 100 100" fill="none" xmlns="http://www.w3.org/2000/svg">
<g clip-path="url(#clip0)">
<path d="M34.7156 74.3576C34.5226 74.7086 34.2235 74.8138 33.9427 74.8138C33.662 74.8138 33.3812 74.7086 33.1882 74.3576L31.1687 70.565V78.2547C31.1687 78.7292 30.5896 78.9749 30.0281 78.9749C29.4482 78.9749 28.8867 78.7292 28.8867 78.2547V67.2813C28.8867 66.4391 29.4482 66.1407 30.0281 66.1407C30.8528 66.1407 31.2221 66.3162 31.8011 67.3515L33.961 71.2845L36.1201 67.3515C36.7 66.3162 37.086 66.1407 37.9115 66.1407C38.4906 66.1407 39.0521 66.4391 39.0521 67.2813V78.2547C39.0521 78.7292 38.4731 78.9749 37.9115 78.9749C37.3317 78.9749 36.7702 78.7292 36.7702 78.2547V70.7054L34.7156 74.3576Z" fill="#CC0A31"/>
<path d="M45.4072 71.653H48.076C48.5322 71.653 48.7954 72.0925 48.7954 72.5663C48.7954 72.9698 48.5673 73.4444 48.076 73.4444H45.4072V76.973H50.3755C50.8325 76.973 51.0957 77.4468 51.0957 77.9915C51.0957 78.4653 50.8676 78.9749 50.3755 78.9749H44.1255C43.6166 78.9749 43.1245 78.7285 43.1245 78.2547V66.8602C43.1245 66.3864 43.6158 66.14 44.1255 66.14H50.3755C50.8676 66.14 51.0957 66.6497 51.0957 67.1234C51.0957 67.6682 50.8325 68.142 50.3755 68.142H45.4072V71.653Z" fill="#CC0A31"/>
<path d="M60.4532 78.2547L56.6782 71.1968V78.2547C56.6782 78.7293 56.0992 78.9749 55.5369 78.9749C54.9578 78.9749 54.3955 78.7293 54.3955 78.2547V66.8602C54.3955 66.3689 54.9578 66.1408 55.5369 66.1408C56.3624 66.1408 56.6958 66.3163 57.2405 67.3516L60.6287 73.9006V66.8427C60.6287 66.3513 61.1902 66.14 61.7701 66.14C62.3316 66.14 62.9107 66.3506 62.9107 66.8427V78.2547C62.9107 78.7285 62.3316 78.9749 61.7701 78.9749C61.2253 78.9749 60.7516 78.7995 60.4532 78.2547Z" fill="#CC0A31"/>
<path d="M73.0756 66.8427C73.0756 66.3513 73.6372 66.1407 74.2162 66.1407C74.7785 66.1407 75.3576 66.3513 75.3576 66.8427V75.0595C75.3576 77.9915 73.4968 79.0802 71.1439 79.0802C68.7734 79.0802 66.9302 77.9915 66.9302 75.0595V66.8427C66.9302 66.3513 67.4917 66.1407 68.0715 66.1407C68.6331 66.1407 69.2121 66.3513 69.2121 66.8427V75.0595C69.2121 76.429 69.9323 77.079 71.1439 77.079C72.3554 77.079 73.0749 76.429 73.0749 75.0595V66.8427H73.0756Z" fill="#CC0A31"/>
<path d="M77.5892 82.4509H69.2434C68.424 82.4509 67.7603 83.1146 67.7603 83.9333C67.7603 84.7527 68.424 85.4156 69.2434 85.4156H77.5892C78.4086 85.4156 79.0716 84.7527 79.0716 83.9333C79.0716 83.1146 78.4086 82.4509 77.5892 82.4509Z" fill="#CC0A31"/>
<path d="M62.345 82.4509H28.5674C27.7487 82.4509 27.085 83.1146 27.085 83.9333C27.085 84.7527 27.7487 85.4156 28.5674 85.4156H62.345C63.1644 85.4156 63.8274 84.7527 63.8274 83.9333C63.8274 83.1146 63.1644 82.4509 62.345 82.4509Z" fill="#CC0A31"/>
<path d="M77.5893 59.8129H28.5674C27.7487 59.8129 27.085 60.4767 27.085 61.2953C27.085 62.1139 27.7487 62.7777 28.5674 62.7777H77.5893C78.4087 62.7777 79.0717 62.1139 79.0717 61.2953C79.0717 60.4767 78.4087 59.8129 77.5893 59.8129Z" fill="#CC0A31"/>
<path opacity="0.4" d="M76.7645 41.4314H75.3256C74.7702 31.2164 67.3033 22.8103 57.5308 20.8206L57.8169 18.0854C57.9108 17.1928 57.6193 16.2986 57.0189 15.6326C56.4185 14.9658 55.5594 14.5836 54.6622 14.5836H51.4952C50.5972 14.5836 49.7389 14.9666 49.1377 15.6326C48.5373 16.2994 48.2466 17.1936 48.3405 18.0854L48.6266 20.8206C38.8541 22.8103 31.3872 31.2156 30.8318 41.4306H29.3929C28.1203 41.4306 27.085 42.4659 27.085 43.7385V46.7979C27.085 48.0705 28.1203 49.1058 29.3929 49.1058H76.7638C78.0363 49.1058 79.0717 48.0705 79.0717 46.7979V43.7385C79.0717 42.4667 78.0371 41.4314 76.7645 41.4314ZM51.3411 17.617C51.3823 17.572 51.4334 17.5491 51.4952 17.5491H54.6622C54.7232 17.5491 54.7751 17.572 54.8163 17.617C54.8575 17.6628 54.875 17.7169 54.8682 17.7772L54.5912 20.4261C54.0915 20.3926 53.5872 20.3735 53.0791 20.3735C52.5702 20.3735 52.0667 20.3926 51.5669 20.4261L51.2892 17.7772C51.2831 17.7169 51.3007 17.6628 51.3411 17.617ZM76.1069 46.141H30.0505V44.3962H36.2982C37.1176 44.3962 37.7814 43.7324 37.7814 42.9138C37.7814 42.0952 37.1176 41.4314 36.2982 41.4314H33.8026C34.4359 31.3484 42.8389 23.339 53.0783 23.339C63.3185 23.339 71.7215 31.3484 72.3547 41.4314H43.1967C42.3773 41.4314 41.7143 42.0952 41.7143 42.9138C41.7143 43.7324 42.3773 44.3962 43.1967 44.3962H76.1069V46.141Z" fill="#CC0A31"/>
<path fill-rule="evenodd" clip-rule="evenodd" d="M88.1804 0H17.977C15.8957 0 14.2019 1.69373 14.2019 3.77502V6.45294V15.686V22.0253V31.2576V37.5976V46.83V53.17V62.4023V68.7423V77.9747V84.3147V93.547V96.2249C14.2019 98.3062 15.8957 100 17.977 100H88.1804C90.2617 100 91.9561 98.3062 91.9561 96.2249V3.77502C91.9561 1.69373 90.2617 0 88.1804 0ZM88.1804 97.0352C88.6274 97.0352 88.9906 96.6713 88.9906 96.2242V3.77502C88.9906 3.3287 88.6274 2.96478 88.1804 2.96478H17.977C17.5299 2.96478 17.1667 3.3287 17.1667 3.77502V96.2242C17.1667 96.6713 17.5299 97.0352 17.977 97.0352H88.1804Z" fill="#CC0A31"/>
<g opacity="0.4">
<path fill-rule="evenodd" clip-rule="evenodd" d="M14.2021 84.3147H12.8189C10.2737 84.3147 8.20312 86.3853 8.20312 88.9305C8.20312 91.4756 10.2737 93.547 12.8189 93.547H14.2021V84.3147ZM12.8189 90.5815H14.2014V87.2795H12.8189C11.9087 87.2795 11.1679 88.0195 11.1679 88.9305C11.1679 89.8407 11.9087 90.5815 12.8189 90.5815Z" fill="#CC0A31"/>
<path fill-rule="evenodd" clip-rule="evenodd" d="M14.2021 68.7423H12.8189C10.2737 68.7423 8.20312 70.813 8.20312 73.3581C8.20312 75.9041 10.2737 77.9747 12.8189 77.9747H14.2021V68.7423ZM12.8189 75.0091H14.2014V71.7071H12.8189C11.9087 71.7071 11.1679 72.4479 11.1679 73.3581C11.1679 74.2691 11.9087 75.0091 12.8189 75.0091Z" fill="#CC0A31"/>
<path fill-rule="evenodd" clip-rule="evenodd" d="M14.2021 53.17H12.8189C10.2737 53.17 8.20312 55.2406 8.20312 57.7858C8.20312 60.3317 10.2737 62.4023 12.8189 62.4023H14.2021V53.17ZM12.8189 59.4375H14.2014V56.1348H12.8189C11.9087 56.1348 11.1679 56.8756 11.1679 57.7858C11.1679 58.6967 11.9087 59.4375 12.8189 59.4375Z" fill="#CC0A31"/>
<path fill-rule="evenodd" clip-rule="evenodd" d="M14.2021 37.5976H12.8189C10.2737 37.5976 8.20312 39.6683 8.20312 42.2142C8.20312 44.7594 10.2737 46.83 12.8189 46.83H14.2021V37.5976ZM12.8189 43.8652H14.2014V40.5624H12.8189C11.9087 40.5624 11.1679 41.3032 11.1679 42.2142C11.1679 43.1244 11.9087 43.8652 12.8189 43.8652Z" fill="#CC0A31"/>
<path fill-rule="evenodd" clip-rule="evenodd" d="M14.2021 22.0253H12.8189C10.2737 22.0253 8.20312 24.0959 8.20312 26.6418C8.20312 29.187 10.2737 31.2576 12.8189 31.2576H14.2021V22.0253ZM12.8189 28.2928H14.2014V24.9908H12.8189C11.9087 24.9908 11.1679 25.7309 11.1679 26.6418C11.1679 27.552 11.9087 28.2928 12.8189 28.2928Z" fill="#CC0A31"/>
<path fill-rule="evenodd" clip-rule="evenodd" d="M14.2021 6.45294H12.8189C10.2737 6.45294 8.20312 8.52432 8.20312 11.0695C8.20312 13.6147 10.2737 15.686 12.8189 15.686H14.2021V6.45294ZM12.8189 12.7213H14.2014V9.41849H12.8189C11.9087 9.41849 11.1679 10.1593 11.1679 11.0695C11.1679 11.9804 11.9087 12.7213 12.8189 12.7213Z" fill="#CC0A31"/>
</g>
</g>
<defs>
<clipPath id="clip0">
<rect width="100" height="100" fill="white"/>
</clipPath>
</defs>
</svg>
