<svg width="102" height="102" viewBox="0 0 102 102" fill="none" xmlns="http://www.w3.org/2000/svg">
<path d="M51.0001 64.1613C54.0675 64.1613 56.6507 62.053 57.377 59.209C57.6018 58.3287 56.8442 57.5806 55.9356 57.5806C55.027 57.5806 54.3241 58.3613 53.8872 59.158C53.3278 60.1781 52.2435 60.8709 51.0001 60.8709C49.7566 60.8709 48.6723 60.1781 48.1129 59.158C47.676 58.3613 46.9732 57.5806 46.0646 57.5806C45.156 57.5806 44.3984 58.3287 44.6232 59.209C45.3495 62.053 47.9326 64.1613 51.0001 64.1613Z" fill="#CC0A31"/>
<path d="M79.3198 78.4496L62.5163 72.8458V68.238C65.3311 65.9101 67.4157 62.7419 68.4206 59.127C72.4958 58.6418 75.6776 55.2037 75.6776 51V37.8387C75.6776 28.3606 70.1437 19.607 61.5773 15.5367C61.5773 15.5367 60.4318 15.0205 59.7332 16.4178C59.0346 17.815 60.1651 18.5097 60.1651 18.5097C67.59 22.037 72.3873 29.6242 72.3873 37.8387V44.4619C71.4266 43.7349 70.3196 43.1903 69.097 42.9421V39.4839C69.097 39.4839 68.8154 38.4246 67.4181 38.4246C66.0209 38.4246 65.8067 39.4839 65.8067 39.4839V44.0032C61.4254 42.8762 57.2483 40.8776 53.6326 38.1681L53.0147 37.7042C52.5158 37.3296 51.7994 37.4983 51.5201 38.0562L51.1745 38.7464C50.3471 40.402 50.0627 42.2689 50.3222 44.0691L49.5061 43.9518C44.7192 43.269 40.1388 41.4255 36.1954 38.6284V34.5484C36.1954 34.5484 35.9798 33.5342 34.5825 33.5342C33.1853 33.5342 32.905 34.5484 32.905 34.5484V42.9405C31.6824 43.1903 30.5755 43.7333 29.6147 44.4603V37.8387C29.6147 29.6242 34.412 22.037 41.8369 18.5097C41.8369 18.5097 42.9661 17.815 42.2674 16.4178C41.5688 15.0205 40.4247 15.5367 40.4247 15.5367C31.8567 19.607 26.3228 28.3606 26.3228 37.8387V51C26.3228 55.2037 29.5047 58.6418 33.5798 59.127C34.5847 62.7419 36.6693 65.9101 39.4841 68.238V72.8458L22.6822 78.448C17.97 80.0177 14.8066 84.4085 14.8066 89.3721V99C14.8066 100.657 16.1498 102 17.8066 102H84.1938C85.8506 102 87.1938 100.657 87.1938 99V89.3721C87.1938 84.4085 84.0304 80.0177 79.3198 78.4496ZM63.0704 76.499C63.5491 76.6583 63.8341 77.1493 63.7351 77.6441L61.704 87.7946C61.5616 88.5062 60.7326 88.8339 60.1422 88.4121L54.496 84.3789C53.9931 84.0197 53.9332 83.295 54.3701 82.8581L60.877 76.3512C61.1447 76.0835 61.5407 75.9899 61.8999 76.1095L63.0704 76.499ZM72.3873 51C72.3873 53.1665 70.9743 54.9924 69.0279 55.6543C69.0624 55.2021 69.097 54.7506 69.097 54.2903V46.3674C71.0072 47.0486 72.3873 48.8584 72.3873 51ZM29.6131 51C29.6131 48.8584 30.9932 47.0486 32.9034 46.3674V54.2903C32.9034 54.7506 32.938 55.2021 32.9725 55.6543C31.0261 54.9924 29.6131 53.1665 29.6131 51ZM36.1937 54.2903V42.5653C40.109 44.9608 44.4886 46.561 49.0393 47.2108L53.6317 47.8659C54.4303 47.9798 55.0282 47.1499 54.6672 46.4285L54.1162 45.3271C53.6174 44.3318 53.4302 43.2168 53.5515 42.1308C57.2796 44.5808 61.4648 46.3392 65.8051 47.353V54.2903C65.8051 62.4551 59.1618 69.0968 50.9986 69.0968C42.8354 69.0968 36.1937 62.4551 36.1937 54.2903ZM51.0002 72.3871C53.3827 72.3871 55.655 71.9149 57.7386 71.0711C58.4317 70.7904 59.226 71.2787 59.226 72.0265V72.9368C59.226 73.2021 59.1207 73.4564 58.9331 73.644L51.7073 80.8698C51.3168 81.2603 50.6836 81.2603 50.2931 80.8698L43.0673 73.644C42.8797 73.4564 42.7744 73.2021 42.7744 72.9368V72.0265C42.7744 71.2787 43.5687 70.7904 44.2618 71.0711C46.3454 71.9149 48.6177 72.3871 51.0002 72.3871ZM40.0989 76.1095C40.4581 75.9899 40.8541 76.0835 41.1218 76.3512L47.6286 82.858C48.0656 83.295 48.0056 84.0197 47.5028 84.3789L41.8559 88.4122C41.2654 88.8339 40.4364 88.5061 40.2941 87.7946L38.2636 77.644C38.1646 77.1493 38.4497 76.6583 38.9284 76.499L40.0989 76.1095ZM83.9034 95.7097C83.9034 97.3665 82.5603 98.7097 80.9034 98.7097H74.0325V92.129C74.0325 92.129 74.0551 91.1712 72.3085 91.1712C70.562 91.1712 70.7421 92.129 70.7421 92.129V98.7097H31.2583V92.129C31.2583 92.129 31.2583 91.1712 29.6921 91.1712C28.1259 91.1712 27.9679 92.129 27.9679 92.129V98.7097H21.097C19.4401 98.7097 18.097 97.3665 18.097 95.7097V89.3721C18.097 85.8263 20.3575 82.6894 23.7217 81.5688L33.8724 78.186C34.443 77.9958 35.0512 78.3488 35.1692 78.9386L38.0674 93.4304C38.2097 94.142 39.0387 94.4698 39.6292 94.048L50.4189 86.3404C50.7666 86.092 51.2338 86.092 51.5815 86.3404L62.3712 94.048C62.9617 94.4698 63.7907 94.142 63.933 93.4304L66.8312 78.9386C66.9492 78.3488 67.5574 77.9958 68.128 78.186L78.2787 81.5688C81.643 82.691 83.9034 85.8263 83.9034 89.3721V95.7097Z" fill="#CC0A31"/>
<path opacity="0.5" d="M44.4192 49.3548C44.4192 50.2634 43.6826 51 42.7741 51C41.8655 51 41.1289 50.2634 41.1289 49.3548C41.1289 48.4463 41.8655 47.7097 42.7741 47.7097C43.6826 47.7097 44.4192 48.4463 44.4192 49.3548Z" fill="#CC0A31"/>
<path opacity="0.5" d="M60.8709 49.3548C60.8709 50.2634 60.1343 51 59.2257 51C58.3172 51 57.5806 50.2634 57.5806 49.3548C57.5806 48.4463 58.3172 47.7097 59.2257 47.7097C60.1343 47.7097 60.8709 48.4463 60.8709 49.3548Z" fill="#CC0A31"/>
<path opacity="0.5" d="M87.1711 32.8356C82.6357 32.8356 78.9453 36.526 78.9453 41.0614V42.7066C78.9453 43.6152 79.6819 44.3518 80.5905 44.3518C81.4991 44.3518 82.2356 43.6152 82.2356 42.7066V41.0614C82.2356 38.3407 84.4503 36.126 87.1711 36.126C89.8919 36.126 92.1066 38.3407 92.1066 41.0614V42.0439C92.1066 43.1605 91.7234 44.2562 91.0253 45.127L86.4205 50.882C85.8414 51.6057 85.5259 52.505 85.5259 53.4318V55.8679C85.5259 56.7765 86.2625 57.5131 87.1711 57.5131C88.0797 57.5131 88.8163 56.7765 88.8163 55.8679V54.2868C88.8163 53.5543 89.0656 52.8435 89.5232 52.2714L93.5935 47.1834C94.7567 45.7302 95.3969 43.9059 95.3969 42.0439V41.0614C95.3969 36.526 91.7065 32.8356 87.1711 32.8356Z" fill="#CC0A31"/>
<path opacity="0.5" d="M85.5483 62.5161C85.5483 61.6075 86.2849 60.871 87.1935 60.871C88.1021 60.871 88.8387 61.6075 88.8387 62.5161C88.8387 63.4247 88.1021 64.1613 87.1935 64.1613C86.2849 64.1613 85.5483 63.4247 85.5483 62.5161Z" fill="#CC0A31"/>
<path opacity="0.5" d="M45.7903 9.92582C45.7903 7.20504 48.005 4.99033 50.7258 4.99033C53.4466 4.99033 55.6613 7.20504 55.6613 9.92582V10.9083C55.6613 12.0248 55.2781 13.1205 54.5801 13.9913L49.9752 19.7464C49.3961 20.4701 49.0806 21.3693 49.0806 22.2962V24.7323C49.0806 25.6409 49.8172 26.3774 50.7258 26.3774C51.6344 26.3774 52.371 25.6409 52.371 24.7323V23.1512C52.371 22.4186 52.6203 21.7079 53.0779 21.1358L57.1482 16.0478C58.3114 14.5946 58.9516 12.7703 58.9516 10.9083V9.92582C58.9516 5.39038 55.2613 1.70001 50.7258 1.70001C46.1904 1.70001 42.5 5.39038 42.5 9.92582V11.571C42.5 12.4796 43.2366 13.2161 44.1452 13.2161C45.0538 13.2161 45.7903 12.4796 45.7903 11.571V9.92582Z" fill="#CC0A31"/>
<path opacity="0.5" d="M49.0806 31.3129C49.0806 30.4043 49.8171 29.6677 50.7257 29.6677C51.6343 29.6677 52.3709 30.4043 52.3709 31.3129C52.3709 32.2215 51.6343 32.958 50.7257 32.958C49.8171 32.958 49.0806 32.2215 49.0806 31.3129Z" fill="#CC0A31"/>
<path opacity="0.5" d="M16.4516 41.129C16.4516 36.5936 12.7612 32.9032 8.22581 32.9032C3.69037 32.9032 0 36.5936 0 41.129V42.7742C0 43.6828 0.736564 44.4193 1.64516 44.4193C2.55376 44.4193 3.29032 43.6828 3.29032 42.7742V41.129C3.29032 38.4082 5.50502 36.1935 8.22581 36.1935C10.9466 36.1935 13.1613 38.4082 13.1613 41.129V42.1114C13.1613 43.228 12.7781 44.3237 12.08 45.1945L7.47519 50.9496C6.89613 51.6733 6.58064 52.5725 6.58064 53.4994V55.9355C6.58064 56.844 7.31721 57.5806 8.22581 57.5806C9.1344 57.5806 9.87097 56.844 9.87097 55.9355V54.3544C9.87097 53.6218 10.1203 52.9111 10.5779 52.339L14.6482 47.251C15.8114 45.7978 16.4516 43.9735 16.4516 42.1114V41.129Z" fill="#CC0A31"/>
<path opacity="0.5" d="M6.58057 62.5161C6.58057 61.6075 7.31713 60.871 8.22573 60.871C9.13433 60.871 9.87089 61.6075 9.87089 62.5161C9.87089 63.4247 9.13433 64.1613 8.22573 64.1613C7.31713 64.1613 6.58057 63.4247 6.58057 62.5161Z" fill="#CC0A31"/>
</svg>
