<svg width="106" height="106" viewBox="0 0 106 106" fill="none" xmlns="http://www.w3.org/2000/svg">
<g clip-path="url(#clip0)">
<path opacity="0.4" fill-rule="evenodd" clip-rule="evenodd" d="M17.4157 76.2254L14.193 74.0888C14.5658 72.1204 13.6504 70.1156 11.8777 69.1128C9.92867 68.0097 7.45562 68.4407 5.99671 70.1374C5.43142 70.7965 5.06264 71.5818 4.92112 72.4261C4.19813 72.8854 3.61828 73.5308 3.23172 74.3096C2.23619 76.3128 2.80229 78.7591 4.57741 80.125C6.19161 81.3664 8.39454 81.4295 10.0621 80.3199L13.229 82.4185L17.4157 76.2254ZM6.47142 77.6633C7.05774 78.1154 7.87211 78.1113 8.44872 77.6552C9.32698 76.9622 10.536 76.908 11.4596 77.5202L13.8331 79.0931C13.9237 78.9152 14.0208 78.7421 14.1315 78.5755C14.2553 78.3879 14.3911 78.2108 14.5375 78.0434L12.1575 76.4664C11.2347 75.8542 10.8142 74.7188 11.111 73.6408C11.3059 72.9307 10.9929 72.1802 10.3484 71.8163C9.69657 71.4475 8.83852 71.5963 8.35249 72.1616C8.13171 72.4188 8.00312 72.7156 7.96916 73.0447C7.88586 73.868 7.40225 74.5967 6.67602 74.9946C6.38731 75.1531 6.1633 75.3876 6.01288 75.6909C5.68131 76.3589 5.87782 77.2072 6.47142 77.6633Z" fill="#CC0A31"/>
<path opacity="0.4" d="M22.9971 39.9191C22.9704 39.8616 22.9437 39.8066 22.9162 39.7484L22.9122 39.74C21.578 36.9294 20.0669 33.746 18.9964 31.9403C18.5751 31.2294 17.8254 30.7491 16.9908 30.6553C14.432 30.3698 12.5024 28.2113 12.5024 25.6332C12.5024 23.6947 13.5837 21.9567 15.324 21.0971C16.2314 20.6491 16.7959 19.7393 16.7959 18.7227V14.3807C16.7959 11.5931 18.998 9.264 21.7064 9.18879C22.596 9.16453 23.4694 9.37075 24.2425 9.78643C24.8757 10.1277 25.6327 10.1964 26.3169 9.97647C27.0035 9.75569 27.555 9.27936 27.8696 8.63563C28.726 6.88557 30.4672 5.79785 32.4137 5.79785C34.5059 5.79785 36.353 7.05621 37.1196 9.00521C37.5806 10.1778 38.8228 10.862 40.0739 10.6275C40.5041 10.5474 40.9457 10.5232 41.388 10.5571C44.0058 10.7553 46.0551 13.0294 46.0551 15.7353V19.863C46.0551 22.7097 43.8028 25.0404 41.0338 25.059C40.8268 25.0606 40.6189 25.0493 40.416 25.0266C39.6703 24.9409 38.9198 25.1787 38.3578 25.6801C37.7933 26.1831 37.4698 26.9061 37.4698 27.6622V27.7722C37.4698 30.5946 35.2361 32.9253 32.4914 32.9666C31.9091 32.9755 31.3301 32.8849 30.781 32.6964C29.969 32.4199 29.0867 32.8517 28.8085 33.6637C28.5311 34.4756 28.9646 35.3579 29.7757 35.6361C30.6645 35.9394 31.5986 36.0874 32.5383 36.072C36.8439 36.0073 40.3707 32.4902 40.5672 28.1539C40.7289 28.1628 40.8923 28.1668 41.054 28.1652C45.5246 28.1353 49.1614 24.4112 49.1614 19.863V15.7345C49.1614 11.4144 45.8497 7.78001 41.6226 7.45976C41.0338 7.41528 40.4435 7.43469 39.862 7.51637C38.547 4.57265 35.664 2.69159 32.4137 2.69159C29.4328 2.69159 26.7503 4.27101 25.3035 6.84514C24.1576 6.31139 22.8952 6.04936 21.6199 6.08414C17.2471 6.20625 13.6896 9.92795 13.6896 14.3807V18.4461C11.0338 19.8735 9.39697 22.6013 9.39697 25.6332C9.39697 29.7252 12.4086 33.1639 16.4376 33.7162C17.4364 35.4477 18.9147 38.5612 20.1108 41.0804C20.7497 42.4269 21.3036 43.5938 21.7242 44.4276L22.9971 39.9191Z" fill="#CC0A31"/>
<path fill-rule="evenodd" clip-rule="evenodd" d="M102.065 89.202H66.7657C66.6816 87.7043 65.4394 86.5106 63.9206 86.5106H55.9467C55.2682 82.9458 52.1304 80.2415 48.3715 80.2415C45.1787 80.2415 42.434 82.1905 41.2629 84.9619C40.3823 82.9183 38.9225 81.1497 37.0374 79.9002C35.4062 78.819 32.6582 77.6447 29.5948 76.7988V58.5575C29.5948 57.6994 28.9002 57.0039 28.0421 57.0039H19.7585C18.5025 57.0039 17.4811 55.9825 17.4811 54.7266C17.4811 53.4707 18.5025 52.4485 19.7585 52.4485H28.0421C28.9002 52.4485 29.5956 51.7538 29.5956 50.8957V47.3754H90.4715V50.8957C90.4715 51.7538 91.1662 52.4485 92.0242 52.4485H100.308C101.564 52.4485 102.585 53.4707 102.585 54.7266C102.585 55.9825 101.564 57.0039 100.308 57.0039H92.0242C91.1662 57.0039 90.4715 57.6994 90.4715 58.5575V83.4391C90.4715 84.2964 91.1662 84.9919 92.0242 84.9919C92.8823 84.9919 93.577 84.2964 93.577 83.4391V60.1102H100.308C103.277 60.1102 105.691 57.6954 105.691 54.7266C105.691 51.7578 103.277 49.343 100.308 49.343H93.577V47.3762H94.5086C96.8498 47.3762 98.7535 45.4717 98.7535 43.1313C98.7535 40.7909 96.8498 38.8863 94.5086 38.8863H72.6717C72.062 32.4482 66.6282 27.3945 60.0332 27.3945C53.4381 27.3945 48.0044 32.4482 47.3946 38.8863H25.7648C22.79 38.8863 21.2 40.6825 21.2 43.1313C21.2 45.58 22.79 47.3754 25.7648 47.3762H26.4894V49.343H19.7585C16.7905 49.343 14.3749 51.7578 14.3749 54.7266C14.3749 57.6954 16.7905 60.1102 19.7585 60.1102H26.4894V76.0855C23.2311 75.4903 19.921 75.386 17.4156 76.2254C17.4156 76.2254 15.37 76.7988 14.1314 78.5755C12.8929 80.3523 13.2289 82.4185 13.2289 82.4185C13.3066 83.6518 13.6511 85.021 14.2633 86.5098H2.85314C1.28019 86.5106 0 87.7908 0 89.3638V92.2711C0 98.2515 4.86521 103.117 10.8456 103.117H19.5005C20.3585 103.117 21.0532 102.421 21.0532 101.564C21.0532 100.706 20.3585 100.01 19.5005 100.01H10.8456C6.57807 100.01 3.10627 96.5387 3.10627 92.2711V89.6161H16.7193C16.7234 89.6161 16.7282 89.6169 16.7323 89.6169C16.7379 89.6169 16.7428 89.6161 16.7476 89.6161H63.6683V92.2711C63.6683 96.5387 60.1957 100.01 55.9281 100.01H26.6172C25.7591 100.01 25.0636 100.706 25.0636 101.564C25.0636 102.421 25.7591 103.117 26.6172 103.117H55.5974C55.7041 103.14 55.8149 103.153 55.929 103.153H88.1424C91.0125 103.153 93.3683 100.916 93.5632 98.0946H102.066C104.235 98.0946 106 96.33 106 94.161V93.1364C106 90.9674 104.235 89.202 102.065 89.202ZM69.5461 38.8863C68.9508 34.1651 64.9137 30.5 60.0332 30.5C55.1534 30.5 51.1155 34.1651 50.5203 38.8863H53.4511C54.0212 35.7696 56.7546 33.3992 60.0332 33.3992C63.3117 33.3992 66.0451 35.7696 66.6145 38.8863H69.5461ZM56.66 38.8863H63.4071C62.9098 37.501 61.5875 36.5055 60.0332 36.5047C58.4788 36.5047 57.1566 37.501 56.66 38.8863ZM25.7648 41.9918C25.1364 41.9918 24.6261 42.5029 24.6261 43.1313C24.6261 43.7588 25.1364 44.2699 25.7648 44.2699H94.5086C95.137 44.2699 95.6481 43.7588 95.6481 43.1313C95.6481 42.5029 95.137 41.9918 94.5086 41.9918H25.7648ZM52.745 86.5106C52.1385 84.6757 50.4071 83.3477 48.3715 83.3477C46.3352 83.3477 44.6045 84.6757 43.9972 86.5106H52.745ZM17.7893 79.4012C17.3267 79.6317 16.9619 79.9261 16.7201 80.2916C15.9349 81.4764 16.2875 83.7173 17.6736 86.5106H38.54C37.9157 84.8819 36.7964 83.4674 35.3213 82.4889C33.5171 81.2928 30.6906 80.218 27.7672 79.5258C27.7041 79.5145 27.641 79.5007 27.5803 79.4821C23.8797 78.6273 20.0536 78.3952 17.9704 79.3155C17.9114 79.3479 17.8515 79.3762 17.7893 79.4012ZM63.4775 100.047H88.1416C89.2972 100.047 90.2564 99.2001 90.4375 98.0946H65.0706C64.6153 98.8063 64.0808 99.4613 63.4775 100.047ZM102.065 94.9892C102.522 94.9892 102.893 94.6172 102.893 94.161L102.894 93.1364C102.894 92.6795 102.522 92.3083 102.065 92.3083H66.773C66.7697 93.2335 66.6509 94.1319 66.4285 94.9892H102.065Z" fill="#CC0A31"/>
</g>
<defs>
<clipPath id="clip0">
<rect width="106" height="106" fill="white"/>
</clipPath>
</defs>
</svg>
