<svg width="120" height="81" viewBox="0 0 120 81" fill="none" xmlns="http://www.w3.org/2000/svg">
<path d="M113.412 64.9668H109.203C108.215 40.2112 88.8285 20.1095 64.3751 17.9869V15.966C66.8582 14.4808 68.3998 11.8185 68.3998 8.85859C68.3998 4.27708 64.6715 0.549316 60.09 0.549316C60.06 0.549316 59.9406 0.549316 59.9106 0.549316C55.3285 0.549316 51.6008 4.27708 51.6008 8.85859C51.6008 11.8185 53.143 14.4814 55.6249 15.966V17.9869C31.1721 20.1095 11.7854 40.2106 10.797 64.9668H6.58768C2.95517 64.9668 0 67.9219 0 71.5539V74.0351C0 77.67 2.95517 80.6263 6.58709 80.6263H113.413C117.045 80.6263 120 77.67 120 74.0351V71.5539C119.999 67.9219 117.044 64.9668 113.412 64.9668ZM55.5684 8.85859C55.5684 6.46553 57.5158 4.51815 59.9095 4.51815C59.94 4.51815 60.0588 4.51815 60.0888 4.51815C62.4824 4.51815 64.4298 6.46553 64.4298 8.85859C64.4298 10.6478 63.3444 12.2306 61.6646 12.8898C60.9049 13.1879 60.4057 13.9211 60.4057 14.7372V17.8011H59.5925V14.7372C59.5925 13.9211 59.0928 13.1884 58.3337 12.8898C56.6538 12.23 55.5684 10.6478 55.5684 8.85859ZM113.412 76.6569H6.58651C5.14244 76.6569 3.96825 75.4804 3.96825 74.0345V71.5533C3.96825 70.1098 5.14303 68.9356 6.58651 68.9356H9.84918C9.86741 68.9362 9.88446 68.9386 9.90269 68.9386H81.1665C82.2619 68.9386 83.151 68.0501 83.151 66.9541C83.151 65.8587 82.2619 64.9697 81.1665 64.9697H14.7711C15.8095 41.032 35.5596 21.8658 59.7266 21.7694H60.2722C84.4398 21.8658 104.189 41.0315 105.228 64.9697H94.0021C92.9061 64.9697 92.0176 65.8587 92.0176 66.9541C92.0176 68.0501 92.9061 68.9386 94.0021 68.9386L109.326 68.9356H113.412C114.856 68.9356 116.03 70.1098 116.03 71.5533V74.0345H116.031C116.031 75.4804 114.856 76.6569 113.412 76.6569Z" fill="#CC0A31"/>
</svg>
